<svg xmlns="http://www.w3.org/2000/svg" xmlns:xlink="http://www.w3.org/1999/xlink" width="268" zoomAndPan="magnify" viewBox="0 0 200.87999 38.999999" height="52" preserveAspectRatio="xMidYMid meet" version="1.0"><defs><g/><clipPath id="abc4b38e20"><path d="M 12 7 L 30 7 L 30 38.988281 L 12 38.988281 Z M 12 7 " clip-rule="nonzero"/></clipPath><clipPath id="7d2b271a98"><path d="M 89 7 L 107 7 L 107 38.988281 L 89 38.988281 Z M 89 7 " clip-rule="nonzero"/></clipPath><clipPath id="4b0f37d321"><path d="M 158.441406 0.0117188 L 188.175781 0.0117188 L 188.175781 29.746094 L 158.441406 29.746094 Z M 158.441406 0.0117188 " clip-rule="nonzero"/></clipPath><clipPath id="8b6cf71b4d"><path d="M 173.308594 0.0117188 C 165.097656 0.0117188 158.441406 6.667969 158.441406 14.878906 C 158.441406 23.089844 165.097656 29.746094 173.308594 29.746094 C 181.519531 29.746094 188.175781 23.089844 188.175781 14.878906 C 188.175781 6.667969 181.519531 0.0117188 173.308594 0.0117188 Z M 173.308594 0.0117188 " clip-rule="nonzero"/></clipPath><clipPath id="a7d572b8bb"><path d="M 161.015625 10.007812 L 173 10.007812 L 173 38.988281 L 161.015625 38.988281 Z M 161.015625 10.007812 " clip-rule="nonzero"/></clipPath><clipPath id="ecd2c20fc0"><path d="M 173 10.007812 L 185.558594 10.007812 L 185.558594 38.988281 L 173 38.988281 Z M 173 10.007812 " clip-rule="nonzero"/></clipPath><clipPath id="8c3f700e3f"><path d="M 161.015625 10.007812 L 173 10.007812 L 173 38.988281 L 161.015625 38.988281 Z M 161.015625 10.007812 " clip-rule="nonzero"/></clipPath><clipPath id="a701305b7e"><path d="M 173 10.007812 L 185.558594 10.007812 L 185.558594 38.988281 L 173 38.988281 Z M 173 10.007812 " clip-rule="nonzero"/></clipPath></defs><g clip-path="url(#abc4b38e20)"><g fill="#000000" fill-opacity="1"><g transform="translate(11.184115, 30.982358)"><g><path d="M 10.1875 8.015625 C 8.476562 8.015625 6.984375 7.671875 5.703125 6.984375 C 4.421875 6.296875 3.425781 5.296875 2.71875 3.984375 C 2.019531 2.679688 1.671875 1.117188 1.671875 -0.703125 L 1.671875 -6.34375 C 1.671875 -7.375 1.941406 -8.171875 2.484375 -8.734375 C 3.035156 -9.304688 3.789062 -9.59375 4.75 -9.59375 C 5.726562 -9.59375 6.484375 -9.304688 7.015625 -8.734375 C 7.554688 -8.171875 7.828125 -7.375 7.828125 -6.34375 L 7.828125 -0.703125 C 7.828125 0.191406 8.039062 0.90625 8.46875 1.4375 C 8.90625 1.96875 9.476562 2.234375 10.1875 2.234375 C 10.90625 2.234375 11.472656 1.96875 11.890625 1.4375 C 12.316406 0.90625 12.53125 0.191406 12.53125 -0.703125 L 12.53125 -20.359375 C 12.53125 -21.378906 12.800781 -22.171875 13.34375 -22.734375 C 13.894531 -23.304688 14.648438 -23.59375 15.609375 -23.59375 C 16.585938 -23.59375 17.34375 -23.304688 17.875 -22.734375 C 18.414062 -22.171875 18.6875 -21.378906 18.6875 -20.359375 L 18.6875 -0.703125 C 18.6875 2.054688 17.914062 4.195312 16.375 5.71875 C 14.84375 7.25 12.78125 8.015625 10.1875 8.015625 Z M 10.1875 8.015625 "/></g></g></g></g><g fill="#000000" fill-opacity="1"><g transform="translate(31.540804, 30.982358)"><g><path d="M 19.6875 -5.78125 L 22.1875 -5.78125 L 22.1875 0 L 4.984375 0 C 3.953125 0 3.140625 -0.253906 2.546875 -0.765625 C 1.960938 -1.273438 1.671875 -1.976562 1.671875 -2.875 C 1.671875 -3.789062 1.960938 -4.503906 2.546875 -5.015625 C 3.140625 -5.523438 3.953125 -5.78125 4.984375 -5.78125 L 12.234375 -5.78125 C 13.097656 -5.78125 13.53125 -6.226562 13.53125 -7.125 L 13.53125 -20.359375 C 13.53125 -21.378906 13.800781 -22.171875 14.34375 -22.734375 C 14.894531 -23.304688 15.648438 -23.59375 16.609375 -23.59375 C 17.585938 -23.59375 18.34375 -23.304688 18.875 -22.734375 C 19.414062 -22.171875 19.6875 -21.378906 19.6875 -20.359375 Z M 7.828125 -7.25 C 6.867188 -7.25 6.113281 -7.523438 5.5625 -8.078125 C 5.019531 -8.640625 4.75 -9.4375 4.75 -10.46875 L 4.75 -20.359375 C 4.75 -21.378906 5.019531 -22.171875 5.5625 -22.734375 C 6.113281 -23.304688 6.867188 -23.59375 7.828125 -23.59375 C 8.804688 -23.59375 9.5625 -23.304688 10.09375 -22.734375 C 10.625 -22.171875 10.890625 -21.378906 10.890625 -20.359375 L 10.890625 -10.46875 C 10.890625 -9.4375 10.625 -8.640625 10.09375 -8.078125 C 9.5625 -7.523438 8.804688 -7.25 7.828125 -7.25 Z M 7.828125 -7.25 "/></g></g></g><g fill="#000000" fill-opacity="1"><g transform="translate(53.401684, 30.982358)"><g><path d="M -0.328125 0 L -0.328125 -5.78125 L 3.984375 -5.78125 C 3.734375 -6.3125 3.609375 -6.914062 3.609375 -7.59375 C 3.609375 -9.53125 4.140625 -11.019531 5.203125 -12.0625 C 6.273438 -13.113281 7.691406 -13.640625 9.453125 -13.640625 C 11.390625 -13.640625 12.894531 -13.082031 13.96875 -11.96875 C 15.039062 -10.851562 15.578125 -9.394531 15.578125 -7.59375 L 15.578125 -5.78125 L 18.21875 -5.78125 C 18.507812 -5.78125 18.738281 -5.875 18.90625 -6.0625 C 19.070312 -6.25 19.15625 -6.476562 19.15625 -6.75 L 19.15625 -11.734375 C 19.175781 -12.554688 18.921875 -13.226562 18.390625 -13.75 C 17.867188 -14.269531 17.175781 -14.53125 16.3125 -14.53125 L 10.796875 -14.53125 C 9.773438 -14.53125 8.976562 -14.773438 8.40625 -15.265625 C 7.832031 -15.765625 7.546875 -16.445312 7.546875 -17.3125 C 7.546875 -18.207031 7.832031 -18.898438 8.40625 -19.390625 C 8.976562 -19.878906 9.773438 -20.125 10.796875 -20.125 L 16.109375 -20.125 C 18.828125 -20.125 20.984375 -19.378906 22.578125 -17.890625 C 24.171875 -16.410156 24.96875 -14.320312 24.96875 -11.625 L 24.96875 -4.21875 C 24.96875 -3.4375 24.78125 -2.722656 24.40625 -2.078125 C 24.039062 -1.429688 23.550781 -0.921875 22.9375 -0.546875 C 22.332031 -0.179688 21.640625 0 20.859375 0 Z M 7.75 -8.015625 C 7.75 -7.328125 7.914062 -6.78125 8.25 -6.375 C 8.582031 -5.976562 9.03125 -5.78125 9.59375 -5.78125 L 11.4375 -5.78125 L 11.4375 -8.015625 C 11.4375 -8.710938 11.257812 -9.265625 10.90625 -9.671875 C 10.5625 -10.085938 10.125 -10.296875 9.59375 -10.296875 C 9.03125 -10.296875 8.582031 -10.085938 8.25 -9.671875 C 7.914062 -9.265625 7.75 -8.710938 7.75 -8.015625 Z M 7.75 -8.015625 "/></g></g></g><g fill="#000000" fill-opacity="1"><g transform="translate(80.042538, 30.982358)"><g/></g></g><g clip-path="url(#7d2b271a98)"><g fill="#000000" fill-opacity="1"><g transform="translate(87.697186, 30.982358)"><g><path d="M 10.1875 8.015625 C 8.476562 8.015625 6.984375 7.671875 5.703125 6.984375 C 4.421875 6.296875 3.425781 5.296875 2.71875 3.984375 C 2.019531 2.679688 1.671875 1.117188 1.671875 -0.703125 L 1.671875 -6.34375 C 1.671875 -7.375 1.941406 -8.171875 2.484375 -8.734375 C 3.035156 -9.304688 3.789062 -9.59375 4.75 -9.59375 C 5.726562 -9.59375 6.484375 -9.304688 7.015625 -8.734375 C 7.554688 -8.171875 7.828125 -7.375 7.828125 -6.34375 L 7.828125 -0.703125 C 7.828125 0.191406 8.039062 0.90625 8.46875 1.4375 C 8.90625 1.96875 9.476562 2.234375 10.1875 2.234375 C 10.90625 2.234375 11.472656 1.96875 11.890625 1.4375 C 12.316406 0.90625 12.53125 0.191406 12.53125 -0.703125 L 12.53125 -20.359375 C 12.53125 -21.378906 12.800781 -22.171875 13.34375 -22.734375 C 13.894531 -23.304688 14.648438 -23.59375 15.609375 -23.59375 C 16.585938 -23.59375 17.34375 -23.304688 17.875 -22.734375 C 18.414062 -22.171875 18.6875 -21.378906 18.6875 -20.359375 L 18.6875 -0.703125 C 18.6875 2.054688 17.914062 4.195312 16.375 5.71875 C 14.84375 7.25 12.78125 8.015625 10.1875 8.015625 Z M 10.1875 8.015625 "/></g></g></g></g><g fill="#000000" fill-opacity="1"><g transform="translate(108.053875, 30.982358)"><g><path d="M 5.21875 0 C 4.082031 0 3.207031 -0.316406 2.59375 -0.953125 C 1.976562 -1.585938 1.671875 -2.484375 1.671875 -3.640625 L 1.671875 -20.359375 C 1.671875 -21.378906 1.941406 -22.171875 2.484375 -22.734375 C 3.035156 -23.304688 3.789062 -23.59375 4.75 -23.59375 C 5.726562 -23.59375 6.484375 -23.304688 7.015625 -22.734375 C 7.554688 -22.171875 7.828125 -21.378906 7.828125 -20.359375 L 7.828125 -5.78125 L 12.671875 -5.78125 L 12.671875 -2.875 C 12.671875 -1.976562 12.671875 -1.273438 12.671875 -0.765625 C 12.671875 -0.253906 12.671875 0 12.671875 0 Z M 5.21875 0 "/></g></g></g><g fill="#000000" fill-opacity="1"><g transform="translate(120.120816, 30.982358)"><g><path d="M -0.328125 0 L -0.328125 -5.78125 L 3.875 -5.78125 C 3.601562 -6 3.328125 -6.304688 3.046875 -6.703125 C 2.773438 -7.109375 2.523438 -7.53125 2.296875 -7.96875 C 2.078125 -8.40625 1.925781 -8.769531 1.84375 -9.0625 C 1.507812 -10.101562 1.457031 -11.140625 1.6875 -12.171875 C 1.914062 -13.210938 2.414062 -14.15625 3.1875 -15 C 3.957031 -15.851562 4.945312 -16.53125 6.15625 -17.03125 C 7.375 -17.53125 8.796875 -17.78125 10.421875 -17.78125 C 11.710938 -17.78125 12.941406 -17.53125 14.109375 -17.03125 C 15.285156 -16.53125 16.300781 -15.851562 17.15625 -15 C 18.019531 -14.15625 18.628906 -13.210938 18.984375 -12.171875 C 19.335938 -11.140625 19.347656 -10.101562 19.015625 -9.0625 C 18.929688 -8.769531 18.773438 -8.40625 18.546875 -7.96875 C 18.328125 -7.53125 18.078125 -7.109375 17.796875 -6.703125 C 17.515625 -6.304688 17.226562 -6 16.9375 -5.78125 L 21.125 -5.78125 L 21.125 0 Z M 10.421875 -6.015625 C 10.941406 -6.015625 11.453125 -6.222656 11.953125 -6.640625 C 12.453125 -7.066406 12.890625 -7.570312 13.265625 -8.15625 C 13.648438 -8.738281 13.90625 -9.25 14.03125 -9.6875 C 14.1875 -10.25 14.109375 -10.769531 13.796875 -11.25 C 13.484375 -11.726562 13.023438 -12.125 12.421875 -12.4375 C 11.828125 -12.75 11.160156 -12.90625 10.421875 -12.90625 C 9.597656 -12.90625 8.882812 -12.75 8.28125 -12.4375 C 7.6875 -12.125 7.253906 -11.726562 6.984375 -11.25 C 6.710938 -10.769531 6.65625 -10.25 6.8125 -9.6875 C 6.945312 -9.25 7.210938 -8.738281 7.609375 -8.15625 C 8.015625 -7.570312 8.472656 -7.066406 8.984375 -6.640625 C 9.503906 -6.222656 9.984375 -6.015625 10.421875 -6.015625 Z M 10.421875 -6.015625 "/></g></g></g><g fill="#000000" fill-opacity="1"><g transform="translate(140.91205, 30.982358)"><g><path d="M 9.328125 -18.65625 C 8.484375 -18.65625 7.789062 -18.921875 7.25 -19.453125 C 6.71875 -19.984375 6.453125 -20.6875 6.453125 -21.5625 C 6.453125 -22.40625 6.71875 -23.097656 7.25 -23.640625 C 7.789062 -24.191406 8.484375 -24.46875 9.328125 -24.46875 C 10.171875 -24.46875 10.863281 -24.191406 11.40625 -23.640625 C 11.957031 -23.097656 12.234375 -22.40625 12.234375 -21.5625 C 12.234375 -20.6875 11.957031 -19.984375 11.40625 -19.453125 C 10.863281 -18.921875 10.171875 -18.65625 9.328125 -18.65625 Z M -0.609375 0 L -0.609375 -5.78125 L 6.28125 -5.78125 L 6.28125 -13.765625 C 6.28125 -14.773438 6.550781 -15.5625 7.09375 -16.125 C 7.644531 -16.695312 8.398438 -16.984375 9.359375 -16.984375 C 10.335938 -16.984375 11.09375 -16.695312 11.625 -16.125 C 12.164062 -15.5625 12.4375 -14.773438 12.4375 -13.765625 L 12.4375 -3.640625 C 12.4375 -2.484375 12.125 -1.585938 11.5 -0.953125 C 10.875 -0.316406 10.003906 0 8.890625 0 Z M -0.609375 0 "/></g></g></g><g clip-path="url(#4b0f37d321)"><g clip-path="url(#8b6cf71b4d)"><path fill="#ff3131" d="M 158.441406 0.0117188 L 188.175781 0.0117188 L 188.175781 29.746094 L 158.441406 29.746094 Z M 158.441406 0.0117188 " fill-opacity="1" fill-rule="nonzero"/></g></g><g clip-path="url(#a7d572b8bb)"><path fill="#ffffff" d="M 162.746094 36.707031 C 163.351562 37.875 164.699219 38.710938 166.171875 38.835938 C 166.300781 38.84375 166.425781 38.851562 166.546875 38.851562 C 167.703125 38.851562 168.695312 38.386719 169.304688 37.546875 C 170.308594 36.160156 171.082031 34.597656 171.535156 33.023438 C 171.929688 31.675781 172.082031 30.332031 171.96875 29.242188 C 171.792969 27.59375 171.648438 26.617188 171.539062 25.902344 C 171.285156 24.210938 171.285156 24.210938 171.84375 20.609375 L 171.851562 20.539062 C 172.03125 19.398438 172.269531 17.835938 172.574219 15.757812 C 172.78125 14.328125 172.464844 13.03125 171.65625 12.011719 C 170.835938 10.980469 169.574219 10.320312 168.203125 10.207031 C 168.066406 10.195312 167.925781 10.1875 167.792969 10.1875 C 166.164062 10.1875 164.808594 11.007812 164.1875 12.390625 C 163.347656 14.285156 163.253906 15.367188 163.109375 17 C 163.015625 18.074219 162.371094 22.191406 162.304688 22.515625 L 162.207031 22.976562 C 161.671875 25.492188 161.167969 27.863281 161.121094 30.101562 C 161.0625 32.609375 161.578125 34.707031 162.746094 36.707031 Z M 162.746094 36.707031 " fill-opacity="1" fill-rule="nonzero"/></g><g clip-path="url(#ecd2c20fc0)"><path fill="#ffffff" d="M 174.929688 12.007812 C 174.117188 13.027344 173.800781 14.320312 174.007812 15.753906 C 174.316406 17.859375 174.558594 19.433594 174.738281 20.585938 L 174.738281 20.605469 C 175.296875 24.207031 175.296875 24.207031 175.042969 25.898438 C 174.933594 26.609375 174.789062 27.585938 174.613281 29.242188 C 174.5 30.328125 174.652344 31.671875 175.046875 33.023438 C 175.5 34.59375 176.273438 36.15625 177.277344 37.542969 C 177.886719 38.382812 178.882812 38.847656 180.039062 38.847656 C 180.160156 38.847656 180.285156 38.84375 180.410156 38.832031 C 181.878906 38.710938 183.222656 37.875 183.832031 36.707031 L 183.832031 36.703125 C 184.996094 34.707031 185.515625 32.609375 185.460938 30.101562 C 185.414062 27.859375 184.914062 25.488281 184.378906 22.972656 L 184.28125 22.511719 C 184.210938 22.183594 183.566406 18.0625 183.472656 16.996094 C 183.332031 15.363281 183.238281 14.28125 182.394531 12.386719 C 181.726562 10.890625 180.1875 10.054688 178.378906 10.203125 C 177.003906 10.320312 175.75 10.976562 174.929688 12.007812 Z M 174.929688 12.007812 " fill-opacity="1" fill-rule="nonzero"/></g><g clip-path="url(#8c3f700e3f)"><path fill="#000000" d="M 170.519531 20.328125 C 170.492188 20.316406 170.464844 20.308594 170.4375 20.308594 C 170.25 20.292969 170.046875 20.457031 169.953125 20.691406 C 169.847656 20.972656 169.917969 21.265625 170.121094 21.34375 C 170.144531 21.355469 170.171875 21.363281 170.203125 21.367188 C 170.394531 21.378906 170.59375 21.21875 170.6875 20.984375 C 170.742188 20.851562 170.753906 20.710938 170.722656 20.589844 C 170.695312 20.457031 170.621094 20.367188 170.519531 20.328125 Z M 170.621094 20.949219 C 170.539062 21.15625 170.367188 21.300781 170.210938 21.285156 C 170.191406 21.28125 170.171875 21.277344 170.148438 21.273438 C 169.984375 21.207031 169.925781 20.957031 170.023438 20.714844 C 170.105469 20.507812 170.277344 20.367188 170.433594 20.378906 C 170.457031 20.382812 170.476562 20.386719 170.496094 20.394531 C 170.574219 20.425781 170.632812 20.496094 170.65625 20.597656 C 170.679688 20.707031 170.667969 20.832031 170.621094 20.949219 Z M 170.441406 20.527344 C 170.425781 20.519531 170.410156 20.515625 170.394531 20.515625 C 170.285156 20.503906 170.167969 20.601562 170.109375 20.746094 C 170.078125 20.828125 170.074219 20.910156 170.085938 20.980469 C 170.105469 21.058594 170.144531 21.113281 170.203125 21.136719 C 170.21875 21.144531 170.234375 21.148438 170.25 21.148438 C 170.363281 21.15625 170.480469 21.058594 170.535156 20.910156 C 170.601562 20.746094 170.5625 20.574219 170.441406 20.527344 Z M 170.464844 20.890625 C 170.421875 21.003906 170.328125 21.085938 170.253906 21.078125 C 170.242188 21.078125 170.234375 21.074219 170.226562 21.070312 C 170.191406 21.058594 170.164062 21.019531 170.152344 20.964844 C 170.140625 20.90625 170.148438 20.839844 170.171875 20.773438 C 170.222656 20.644531 170.332031 20.558594 170.410156 20.589844 C 170.492188 20.625 170.519531 20.761719 170.464844 20.890625 Z M 164.183594 20.859375 C 164.210938 20.863281 164.238281 20.859375 164.269531 20.855469 C 164.480469 20.808594 164.601562 20.535156 164.542969 20.242188 C 164.492188 19.992188 164.316406 19.796875 164.128906 19.78125 C 164.101562 19.777344 164.074219 19.78125 164.046875 19.785156 C 163.941406 19.808594 163.855469 19.886719 163.800781 20.003906 C 163.753906 20.121094 163.742188 20.257812 163.769531 20.402344 C 163.824219 20.652344 164 20.839844 164.183594 20.859375 Z M 163.871094 20.03125 C 163.914062 19.933594 163.984375 19.871094 164.0625 19.855469 C 164.082031 19.851562 164.105469 19.847656 164.125 19.851562 C 164.28125 19.867188 164.429688 20.03125 164.472656 20.25 C 164.523438 20.503906 164.429688 20.746094 164.257812 20.777344 C 164.238281 20.78125 164.214844 20.785156 164.195312 20.78125 C 164.039062 20.769531 163.890625 20.601562 163.847656 20.382812 C 163.816406 20.257812 163.824219 20.132812 163.871094 20.03125 Z M 164.175781 20.644531 C 164.195312 20.644531 164.207031 20.644531 164.226562 20.640625 C 164.289062 20.625 164.335938 20.582031 164.367188 20.503906 C 164.398438 20.433594 164.398438 20.351562 164.382812 20.269531 C 164.351562 20.113281 164.25 19.996094 164.140625 19.992188 C 164.121094 19.992188 164.109375 19.992188 164.089844 19.996094 C 163.964844 20.023438 163.894531 20.183594 163.933594 20.363281 C 163.96875 20.523438 164.066406 20.636719 164.175781 20.644531 Z M 164.105469 20.066406 C 164.1875 20.050781 164.28125 20.152344 164.308594 20.285156 C 164.324219 20.355469 164.320312 20.425781 164.300781 20.480469 C 164.277344 20.527344 164.246094 20.5625 164.210938 20.570312 C 164.207031 20.574219 164.195312 20.574219 164.183594 20.574219 C 164.109375 20.566406 164.03125 20.472656 164.007812 20.351562 C 163.980469 20.214844 164.023438 20.085938 164.105469 20.066406 Z M 165.445312 21.019531 C 166.074219 21.304688 166.699219 21.472656 167.304688 21.523438 C 168.230469 21.597656 168.867188 21.378906 169.09375 21.28125 C 169.160156 21.253906 169.203125 21.207031 169.207031 21.152344 L 169.21875 21.007812 L 169.28125 20.199219 L 169.292969 20.058594 C 169.296875 20.035156 169.28125 20.019531 169.261719 20.011719 C 169.25 20.003906 169.234375 20 169.210938 20.011719 C 168.648438 20.210938 168.050781 20.285156 167.433594 20.234375 C 166.464844 20.152344 165.714844 19.789062 165.4375 19.636719 C 165.425781 19.628906 165.414062 19.628906 165.410156 19.628906 C 165.402344 19.628906 165.390625 19.628906 165.382812 19.628906 C 165.359375 19.636719 165.347656 19.652344 165.347656 19.671875 L 165.34375 19.789062 C 165.335938 19.796875 165.332031 19.804688 165.332031 19.8125 L 165.304688 20.859375 C 165.3125 20.921875 165.359375 20.984375 165.445312 21.019531 Z M 165.425781 19.710938 C 165.722656 19.871094 166.46875 20.226562 167.433594 20.308594 C 168.054688 20.359375 168.65625 20.285156 169.21875 20.089844 L 169.21875 20.152344 C 169.214844 20.152344 169.207031 20.152344 169.203125 20.152344 C 168.644531 20.351562 168.046875 20.429688 167.425781 20.375 C 166.460938 20.296875 165.707031 19.933594 165.429688 19.777344 C 165.425781 19.777344 165.425781 19.777344 165.421875 19.777344 Z M 165.414062 19.664062 L 165.410156 19.703125 Z M 165.398438 19.808594 L 165.394531 19.84375 Z M 165.414062 19.851562 C 165.710938 20.011719 166.460938 20.371094 167.421875 20.449219 C 168.046875 20.5 168.648438 20.429688 169.210938 20.230469 L 169.144531 21.003906 L 169.132812 21.148438 C 169.128906 21.175781 169.105469 21.199219 169.066406 21.214844 C 168.839844 21.3125 168.222656 21.527344 167.3125 21.453125 C 166.714844 21.402344 166.09375 21.234375 165.476562 20.957031 C 165.421875 20.933594 165.386719 20.898438 165.390625 20.863281 Z M 162.707031 36.722656 C 163.320312 37.90625 164.679688 38.753906 166.171875 38.875 C 167.5 38.988281 168.65625 38.511719 169.339844 37.566406 C 170.347656 36.179688 171.121094 34.609375 171.578125 33.03125 C 171.972656 31.675781 172.125 30.328125 172.011719 29.234375 C 171.835938 27.589844 171.691406 26.609375 171.582031 25.890625 C 171.328125 24.207031 171.328125 24.207031 171.882812 20.613281 C 172.0625 19.460938 172.304688 17.878906 172.613281 15.761719 C 172.828125 14.316406 172.503906 13.007812 171.6875 11.984375 C 170.859375 10.941406 169.589844 10.277344 168.203125 10.164062 C 166.375 10.011719 164.820312 10.859375 164.144531 12.371094 C 163.296875 14.277344 163.203125 15.359375 163.0625 16.996094 C 162.96875 18.070312 162.324219 22.183594 162.253906 22.503906 L 162.15625 22.964844 C 161.625 25.484375 161.121094 27.859375 161.070312 30.101562 C 161.015625 32.617188 161.539062 34.722656 162.707031 36.722656 Z M 162.945312 21.980469 C 162.992188 21.695312 163.050781 21.335938 163.109375 20.9375 C 163.242188 20.179688 163.335938 19.523438 163.410156 18.941406 C 163.523438 18.144531 163.617188 17.425781 163.652344 17.046875 C 163.789062 15.464844 163.882812 14.421875 164.683594 12.613281 C 165.253906 11.335938 166.585938 10.625 168.152344 10.753906 C 169.375 10.855469 170.488281 11.4375 171.21875 12.351562 C 171.929688 13.246094 172.207031 14.398438 172.019531 15.675781 C 171.710938 17.789062 171.46875 19.367188 171.289062 20.527344 C 170.734375 24.136719 170.722656 24.207031 170.988281 25.980469 C 171.027344 26.261719 171.078125 26.585938 171.128906 26.96875 C 171.128906 26.96875 171.128906 26.96875 171.128906 26.972656 C 170.996094 28.585938 170.773438 31.320312 170.074219 33.570312 C 169.8125 33.390625 169.203125 32.960938 168.785156 32.289062 C 168.929688 32.269531 169.058594 32.242188 169.15625 32.207031 C 169.351562 32.140625 169.496094 32.066406 169.601562 31.992188 C 169.605469 31.992188 169.609375 31.992188 169.613281 31.992188 C 169.84375 32.011719 170.050781 31.765625 170.078125 31.449219 C 170.109375 31.128906 169.941406 30.855469 169.710938 30.835938 C 169.480469 30.816406 169.273438 31.0625 169.246094 31.378906 C 169.242188 31.398438 169.242188 31.421875 169.242188 31.441406 C 169.230469 31.445312 169.21875 31.449219 169.210938 31.453125 C 169.050781 31.496094 168.800781 31.535156 168.488281 31.558594 C 168.445312 31.34375 168.414062 31.066406 168.394531 30.734375 C 168.574219 30.660156 168.742188 30.585938 168.875 30.519531 L 169.140625 30.386719 C 169.222656 30.34375 169.324219 30.28125 169.425781 30.210938 C 169.464844 30.230469 169.503906 30.242188 169.542969 30.242188 C 169.773438 30.265625 169.980469 30.019531 170.011719 29.703125 C 170.039062 29.382812 169.871094 29.109375 169.640625 29.089844 C 169.441406 29.074219 169.253906 29.257812 169.191406 29.519531 C 168.960938 29.675781 168.648438 29.839844 168.371094 29.960938 C 168.367188 29.628906 168.375 29.265625 168.390625 28.875 C 168.613281 28.785156 168.835938 28.6875 168.996094 28.605469 L 169.257812 28.472656 C 169.34375 28.429688 169.441406 28.367188 169.535156 28.300781 C 169.574219 28.320312 169.613281 28.332031 169.65625 28.335938 C 169.882812 28.351562 170.085938 28.113281 170.113281 27.800781 C 170.140625 27.488281 169.980469 27.214844 169.753906 27.199219 C 169.554688 27.179688 169.375 27.363281 169.3125 27.617188 C 169.0625 27.785156 168.710938 27.96875 168.425781 28.085938 C 168.449219 27.726562 168.476562 27.355469 168.511719 26.972656 C 168.710938 26.894531 168.90625 26.808594 169.054688 26.734375 L 169.304688 26.609375 C 169.382812 26.570312 169.476562 26.507812 169.570312 26.441406 C 169.605469 26.460938 169.644531 26.472656 169.683594 26.476562 C 169.898438 26.496094 170.097656 26.265625 170.121094 25.964844 C 170.144531 25.667969 169.988281 25.40625 169.773438 25.390625 C 169.585938 25.371094 169.410156 25.546875 169.351562 25.792969 C 169.132812 25.9375 168.839844 26.09375 168.585938 26.203125 C 168.617188 25.902344 168.65625 25.59375 168.699219 25.285156 C 168.882812 25.210938 169.058594 25.132812 169.195312 25.0625 L 169.441406 24.9375 C 169.523438 24.902344 169.617188 24.839844 169.710938 24.773438 C 169.746094 24.789062 169.785156 24.804688 169.820312 24.808594 C 170.039062 24.824219 170.234375 24.59375 170.261719 24.296875 C 170.285156 23.996094 170.128906 23.738281 169.914062 23.71875 C 169.726562 23.703125 169.546875 23.875 169.492188 24.121094 C 169.296875 24.25 169.042969 24.390625 168.808594 24.496094 C 168.863281 24.164062 168.914062 23.824219 168.976562 23.488281 C 169.113281 23.429688 169.238281 23.371094 169.34375 23.320312 L 169.59375 23.195312 C 169.671875 23.15625 169.765625 23.09375 169.859375 23.027344 C 169.894531 23.046875 169.933594 23.058594 169.972656 23.0625 C 170.1875 23.082031 170.386719 22.851562 170.410156 22.554688 C 170.433594 22.253906 170.277344 21.996094 170.0625 21.976562 C 169.875 21.960938 169.695312 22.132812 169.640625 22.378906 C 169.496094 22.476562 169.3125 22.582031 169.128906 22.671875 C 169.1875 22.371094 169.253906 22.0625 169.320312 21.761719 C 169.40625 21.394531 169.996094 20.359375 170.804688 19.332031 C 171.246094 18.792969 171.671875 17.398438 171.425781 15.238281 C 171.289062 14.058594 170.90625 12.613281 170.238281 12.097656 C 169.507812 11.535156 168.625 11.386719 168.167969 11.347656 C 167.542969 11.296875 166.984375 11.382812 166.707031 11.578125 C 166.015625 12.054688 165.472656 12.714844 165.125 13.484375 C 164.660156 14.53125 164.136719 16.65625 164.027344 17.9375 C 163.96875 18.644531 164.300781 19.324219 164.621094 19.984375 C 164.890625 20.546875 165.148438 21.074219 165.164062 21.59375 L 165.175781 21.902344 C 165.179688 22.019531 165.183594 22.136719 165.1875 22.25 C 165.0625 22.152344 164.941406 22.054688 164.84375 21.960938 C 164.835938 21.699219 164.6875 21.492188 164.496094 21.472656 C 164.28125 21.457031 164.082031 21.683594 164.058594 21.984375 C 164.035156 22.28125 164.191406 22.542969 164.40625 22.558594 C 164.441406 22.5625 164.476562 22.558594 164.511719 22.550781 C 164.605469 22.648438 164.703125 22.738281 164.785156 22.800781 L 165.007812 22.964844 C 165.066406 23.007812 165.136719 23.054688 165.210938 23.101562 C 165.222656 23.375 165.226562 23.640625 165.234375 23.890625 C 165.230469 23.925781 165.222656 23.953125 165.222656 23.980469 C 165.214844 24.039062 165.207031 24.085938 165.203125 24.121094 C 165.019531 23.988281 164.839844 23.839844 164.695312 23.703125 C 164.683594 23.441406 164.539062 23.234375 164.347656 23.214844 C 164.132812 23.199219 163.933594 23.429688 163.910156 23.726562 C 163.886719 24.027344 164.042969 24.285156 164.257812 24.304688 C 164.292969 24.308594 164.328125 24.304688 164.363281 24.292969 C 164.457031 24.390625 164.554688 24.480469 164.636719 24.542969 L 164.859375 24.707031 C 164.96875 24.785156 165.109375 24.878906 165.253906 24.972656 C 165.261719 25.308594 165.265625 25.621094 165.265625 25.929688 C 165.023438 25.773438 164.746094 25.558594 164.554688 25.371094 C 164.546875 25.113281 164.398438 24.902344 164.207031 24.886719 C 163.992188 24.871094 163.792969 25.097656 163.769531 25.398438 C 163.746094 25.695312 163.902344 25.957031 164.117188 25.972656 C 164.152344 25.976562 164.1875 25.972656 164.222656 25.964844 C 164.3125 26.058594 164.414062 26.152344 164.496094 26.214844 L 164.722656 26.375 C 164.867188 26.480469 165.0625 26.609375 165.261719 26.730469 C 165.253906 27.109375 165.242188 27.484375 165.222656 27.875 C 164.9375 27.714844 164.550781 27.429688 164.300781 27.183594 C 164.289062 26.914062 164.140625 26.695312 163.933594 26.679688 C 163.707031 26.660156 163.503906 26.902344 163.476562 27.214844 C 163.445312 27.523438 163.609375 27.796875 163.835938 27.8125 C 163.875 27.816406 163.910156 27.8125 163.945312 27.804688 C 164.042969 27.902344 164.144531 28 164.234375 28.0625 L 164.46875 28.234375 C 164.652344 28.367188 164.917969 28.539062 165.171875 28.6875 C 165.140625 29.089844 165.097656 29.457031 165.054688 29.78125 C 164.761719 29.621094 164.359375 29.324219 164.101562 29.074219 C 164.089844 28.800781 163.9375 28.578125 163.730469 28.558594 C 163.5 28.539062 163.289062 28.785156 163.261719 29.101562 C 163.234375 29.421875 163.402344 29.695312 163.632812 29.710938 C 163.667969 29.714844 163.703125 29.710938 163.742188 29.703125 C 163.839844 29.804688 163.949219 29.902344 164.035156 29.964844 L 164.273438 30.140625 C 164.445312 30.265625 164.683594 30.417969 164.914062 30.558594 C 164.859375 30.820312 164.792969 31.050781 164.726562 31.257812 C 164.410156 31.15625 164.148438 31.03125 163.953125 30.894531 C 163.957031 30.597656 163.796875 30.351562 163.578125 30.335938 C 163.351562 30.3125 163.140625 30.558594 163.113281 30.875 C 163.085938 31.195312 163.253906 31.46875 163.480469 31.488281 C 163.519531 31.492188 163.558594 31.488281 163.597656 31.472656 C 163.65625 31.535156 163.714844 31.585938 163.761719 31.617188 C 163.910156 31.734375 164.148438 31.835938 164.441406 31.925781 C 164.050781 32.644531 163.5625 32.902344 163.058594 33.167969 C 163.011719 33.191406 162.96875 33.210938 162.925781 33.238281 C 162.140625 30.339844 162.367188 27.953125 162.871094 22.722656 C 162.898438 22.476562 162.921875 22.234375 162.945312 21.980469 Z M 163.296875 30.878906 C 163.285156 31.03125 163.339844 31.164062 163.429688 31.21875 C 163.464844 31.28125 163.507812 31.34375 163.546875 31.398438 C 163.53125 31.398438 163.511719 31.398438 163.496094 31.398438 C 163.308594 31.386719 163.175781 31.148438 163.195312 30.871094 C 163.222656 30.597656 163.390625 30.386719 163.578125 30.398438 C 163.742188 30.414062 163.863281 30.59375 163.878906 30.820312 C 163.824219 30.777344 163.78125 30.734375 163.738281 30.683594 C 163.71875 30.644531 163.691406 30.609375 163.65625 30.585938 L 163.652344 30.582031 L 163.648438 30.582031 C 163.625 30.5625 163.59375 30.554688 163.566406 30.550781 C 163.429688 30.539062 163.3125 30.683594 163.296875 30.878906 Z M 163.523438 30.632812 C 163.496094 30.648438 163.476562 30.660156 163.453125 30.679688 C 163.476562 30.652344 163.5 30.640625 163.523438 30.632812 Z M 163.488281 30.90625 C 163.496094 30.839844 163.53125 30.792969 163.601562 30.761719 C 164.125 31.390625 165.414062 31.621094 166.414062 31.707031 C 167.589844 31.804688 168.777344 31.726562 169.25 31.59375 C 169.457031 31.535156 169.578125 31.382812 169.664062 31.265625 C 169.699219 31.3125 169.75 31.410156 169.738281 31.523438 C 169.71875 31.746094 169.5 31.929688 169.109375 32.058594 C 168.679688 32.203125 167.746094 32.238281 166.679688 32.148438 C 165.34375 32.035156 164.207031 31.769531 163.859375 31.484375 L 163.847656 31.476562 C 163.730469 31.414062 163.472656 31.109375 163.488281 30.90625 Z M 163.511719 29.410156 C 163.558594 29.476562 163.617188 29.554688 163.6875 29.628906 C 163.671875 29.628906 163.660156 29.628906 163.644531 29.628906 C 163.457031 29.613281 163.324219 29.375 163.347656 29.101562 C 163.371094 28.828125 163.539062 28.617188 163.730469 28.628906 C 163.875 28.644531 163.984375 28.789062 164.019531 28.980469 L 163.921875 28.875 C 163.886719 28.839844 163.828125 28.808594 163.777344 28.800781 C 163.761719 28.792969 163.738281 28.785156 163.71875 28.78125 C 163.660156 28.777344 163.601562 28.804688 163.554688 28.851562 C 163.554688 28.851562 163.550781 28.851562 163.550781 28.851562 C 163.488281 28.902344 163.441406 29.007812 163.433594 29.085938 C 163.417969 29.183594 163.457031 29.328125 163.511719 29.410156 Z M 163.636719 29.328125 C 163.601562 29.273438 163.574219 29.167969 163.578125 29.101562 C 163.582031 29.058594 163.617188 28.992188 163.648438 28.964844 C 163.667969 28.953125 163.703125 28.9375 163.726562 28.941406 L 163.730469 28.941406 C 163.757812 28.945312 163.792969 28.960938 163.8125 28.980469 L 163.921875 29.09375 C 164.183594 29.371094 164.671875 29.742188 165.007812 29.921875 L 165.609375 30.242188 C 165.945312 30.417969 166.507812 30.652344 166.871094 30.769531 L 168.253906 31.203125 L 168.320312 31.578125 C 168.1875 31.585938 168.046875 31.589844 167.90625 31.597656 C 167.574219 31.492188 167.1875 31.367188 166.921875 31.28125 L 166.824219 31.25 C 166.472656 31.144531 165.921875 30.917969 165.59375 30.753906 L 165.503906 30.710938 C 165.175781 30.542969 164.667969 30.234375 164.367188 30.019531 L 164.128906 29.84375 C 163.972656 29.722656 163.746094 29.488281 163.636719 29.328125 Z M 163.71875 27.515625 C 163.761719 27.582031 163.824219 27.652344 163.890625 27.726562 C 163.875 27.726562 163.859375 27.730469 163.847656 27.726562 C 163.664062 27.710938 163.53125 27.476562 163.554688 27.207031 C 163.578125 26.933594 163.746094 26.726562 163.929688 26.742188 C 164.074219 26.75 164.183594 26.898438 164.21875 27.085938 L 164.121094 26.984375 C 164.085938 26.949219 164.03125 26.917969 163.980469 26.90625 C 163.960938 26.902344 163.941406 26.894531 163.921875 26.890625 C 163.859375 26.886719 163.804688 26.910156 163.761719 26.960938 C 163.761719 26.960938 163.761719 26.960938 163.757812 26.960938 C 163.699219 27.011719 163.644531 27.113281 163.636719 27.191406 C 163.628906 27.292969 163.667969 27.429688 163.71875 27.515625 Z M 163.839844 27.429688 C 163.804688 27.375 163.777344 27.273438 163.78125 27.210938 C 163.785156 27.167969 163.820312 27.101562 163.851562 27.074219 C 163.867188 27.058594 163.90625 27.046875 163.925781 27.050781 L 163.933594 27.050781 C 163.953125 27.054688 163.996094 27.070312 164.011719 27.085938 L 164.117188 27.199219 C 164.375 27.46875 164.855469 27.835938 165.191406 28.011719 L 165.785156 28.328125 C 166.109375 28.5 166.667969 28.734375 167.023438 28.84375 L 168.199219 29.210938 L 168.191406 29.710938 C 167.871094 29.601562 167.421875 29.457031 167.132812 29.367188 L 166.980469 29.320312 C 166.636719 29.210938 166.09375 28.992188 165.769531 28.832031 L 165.679688 28.785156 C 165.355469 28.621094 164.855469 28.316406 164.5625 28.105469 L 164.328125 27.933594 C 164.171875 27.820312 163.949219 27.589844 163.839844 27.429688 Z M 164.007812 25.683594 C 164.046875 25.746094 164.105469 25.816406 164.171875 25.890625 C 164.15625 25.890625 164.144531 25.890625 164.132812 25.890625 C 163.953125 25.875 163.828125 25.652344 163.851562 25.394531 C 163.871094 25.132812 164.035156 24.933594 164.207031 24.949219 C 164.34375 24.960938 164.453125 25.097656 164.484375 25.277344 L 164.390625 25.179688 C 164.359375 25.144531 164.300781 25.117188 164.253906 25.105469 C 164.238281 25.097656 164.21875 25.089844 164.199219 25.089844 C 164.144531 25.085938 164.085938 25.109375 164.046875 25.152344 C 164.046875 25.152344 164.042969 25.152344 164.042969 25.15625 C 164.039062 25.160156 164.035156 25.164062 164.035156 25.167969 C 164.03125 25.171875 164.03125 25.171875 164.027344 25.175781 C 163.976562 25.226562 163.933594 25.308594 163.929688 25.382812 C 163.921875 25.476562 163.953125 25.609375 164.007812 25.683594 Z M 164.121094 25.609375 C 164.085938 25.558594 164.0625 25.457031 164.066406 25.394531 C 164.070312 25.355469 164.101562 25.289062 164.132812 25.265625 C 164.144531 25.25 164.183594 25.242188 164.207031 25.242188 L 164.210938 25.242188 C 164.234375 25.246094 164.269531 25.261719 164.285156 25.277344 L 164.386719 25.382812 C 164.632812 25.644531 165.09375 25.996094 165.410156 26.160156 L 165.976562 26.464844 C 166.289062 26.628906 166.820312 26.851562 167.160156 26.957031 L 168.324219 27.308594 L 168.285156 27.785156 C 167.980469 27.683594 167.542969 27.542969 167.265625 27.457031 L 167.121094 27.410156 C 166.789062 27.304688 166.269531 27.097656 165.960938 26.941406 L 165.875 26.902344 C 165.566406 26.746094 165.089844 26.453125 164.808594 26.246094 L 164.582031 26.085938 C 164.4375 25.980469 164.226562 25.761719 164.121094 25.609375 Z M 164.144531 24.015625 C 164.1875 24.078125 164.242188 24.148438 164.308594 24.21875 C 164.296875 24.21875 164.28125 24.21875 164.269531 24.21875 C 164.09375 24.207031 163.96875 23.980469 163.988281 23.722656 C 164.011719 23.464844 164.175781 23.265625 164.347656 23.277344 C 164.488281 23.289062 164.589844 23.429688 164.621094 23.609375 L 164.527344 23.507812 C 164.496094 23.472656 164.441406 23.445312 164.394531 23.433594 C 164.375 23.429688 164.359375 23.421875 164.335938 23.417969 C 164.28125 23.414062 164.226562 23.4375 164.183594 23.484375 C 164.183594 23.484375 164.179688 23.484375 164.179688 23.484375 C 164.175781 23.488281 164.175781 23.492188 164.175781 23.496094 C 164.171875 23.496094 164.171875 23.496094 164.167969 23.5 C 164.113281 23.554688 164.074219 23.636719 164.070312 23.710938 C 164.058594 23.808594 164.09375 23.9375 164.144531 24.015625 Z M 164.265625 23.9375 C 164.230469 23.886719 164.207031 23.785156 164.207031 23.722656 C 164.210938 23.683594 164.242188 23.621094 164.273438 23.59375 C 164.289062 23.582031 164.328125 23.570312 164.347656 23.570312 L 164.355469 23.570312 C 164.375 23.574219 164.414062 23.589844 164.429688 23.605469 L 164.527344 23.714844 C 164.777344 23.972656 165.234375 24.324219 165.550781 24.492188 L 166.117188 24.792969 C 166.429688 24.960938 166.964844 25.183594 167.304688 25.285156 L 168.464844 25.640625 L 168.425781 26.117188 C 168.125 26.015625 167.6875 25.871094 167.410156 25.785156 L 167.261719 25.742188 C 166.933594 25.636719 166.414062 25.429688 166.105469 25.273438 L 166.015625 25.230469 C 165.707031 25.074219 165.230469 24.78125 164.949219 24.578125 L 164.722656 24.414062 C 164.578125 24.308594 164.367188 24.089844 164.265625 23.9375 Z M 164.292969 22.273438 C 164.332031 22.335938 164.390625 22.402344 164.457031 22.476562 C 164.441406 22.476562 164.429688 22.476562 164.417969 22.476562 C 164.238281 22.464844 164.113281 22.238281 164.136719 21.980469 C 164.15625 21.71875 164.320312 21.523438 164.492188 21.535156 C 164.628906 21.546875 164.738281 21.683594 164.769531 21.871094 L 164.675781 21.769531 C 164.644531 21.734375 164.585938 21.707031 164.539062 21.695312 C 164.523438 21.6875 164.503906 21.683594 164.484375 21.679688 C 164.429688 21.675781 164.371094 21.699219 164.332031 21.746094 C 164.332031 21.746094 164.328125 21.746094 164.328125 21.746094 C 164.324219 21.746094 164.320312 21.75 164.320312 21.753906 C 164.316406 21.757812 164.316406 21.757812 164.3125 21.761719 C 164.261719 21.8125 164.21875 21.898438 164.214844 21.96875 C 164.207031 22.058594 164.238281 22.191406 164.292969 22.273438 Z M 164.410156 22.191406 C 164.375 22.140625 164.347656 22.039062 164.355469 21.976562 C 164.359375 21.933594 164.390625 21.871094 164.421875 21.847656 C 164.433594 21.835938 164.472656 21.824219 164.492188 21.824219 L 164.5 21.824219 C 164.523438 21.828125 164.558594 21.84375 164.574219 21.859375 L 164.675781 21.964844 C 164.921875 22.226562 165.378906 22.578125 165.699219 22.746094 L 166.265625 23.046875 C 166.578125 23.214844 167.109375 23.4375 167.445312 23.546875 L 168.710938 23.957031 L 168.648438 24.402344 C 168.367188 24.308594 167.84375 24.132812 167.554688 24.046875 L 167.410156 24 C 167.078125 23.898438 166.558594 23.6875 166.25 23.53125 L 166.164062 23.492188 C 165.855469 23.335938 165.378906 23.042969 165.09375 22.839844 L 164.875 22.675781 C 164.722656 22.5625 164.511719 22.34375 164.410156 22.191406 Z M 166.546875 19.226562 L 166.578125 19.242188 C 167.011719 19.410156 167.972656 19.472656 168.425781 19.40625 C 168.488281 19.398438 168.578125 19.371094 168.6875 19.328125 C 169.015625 19.214844 169.5625 19.027344 169.917969 19.234375 C 170.066406 19.320312 170.171875 19.480469 170.234375 19.699219 C 169.601562 20.578125 169.175781 21.367188 169.097656 21.703125 C 169.019531 22.058594 168.941406 22.421875 168.871094 22.78125 C 168.796875 22.8125 168.722656 22.84375 168.652344 22.867188 L 168.046875 23.070312 C 167.808594 23.152344 167.460938 23.238281 167.15625 23.300781 C 166.871094 23.1875 166.546875 23.042969 166.332031 22.929688 L 165.761719 22.625 C 165.664062 22.570312 165.542969 22.496094 165.421875 22.414062 C 165.414062 22.246094 165.414062 22.066406 165.40625 21.882812 L 165.394531 21.578125 C 165.378906 21.007812 165.09375 20.433594 164.824219 19.875 C 164.710938 19.640625 164.59375 19.402344 164.496094 19.160156 C 164.933594 18.601562 165.429688 18.792969 166.546875 19.226562 Z M 170.222656 22.238281 C 170.183594 22.191406 170.117188 22.15625 170.058594 22.152344 L 170.050781 22.152344 C 169.996094 22.148438 169.921875 22.167969 169.875 22.203125 L 169.757812 22.292969 C 169.75 22.296875 169.742188 22.304688 169.738281 22.308594 C 169.800781 22.144531 169.925781 22.03125 170.058594 22.046875 C 170.234375 22.058594 170.363281 22.285156 170.339844 22.542969 C 170.320312 22.804688 170.15625 23 169.980469 22.988281 C 169.964844 22.988281 169.949219 22.980469 169.929688 22.976562 C 170.023438 22.90625 170.109375 22.832031 170.171875 22.765625 C 170.234375 22.695312 170.292969 22.570312 170.296875 22.476562 C 170.300781 22.398438 170.269531 22.296875 170.222656 22.238281 Z M 169.84375 22.402344 L 169.960938 22.308594 C 169.980469 22.296875 170.019531 22.285156 170.042969 22.285156 L 170.046875 22.285156 C 170.070312 22.289062 170.105469 22.308594 170.113281 22.320312 C 170.140625 22.351562 170.160156 22.417969 170.15625 22.460938 C 170.148438 22.523438 170.109375 22.617188 170.066406 22.660156 C 169.941406 22.792969 169.695312 22.976562 169.53125 23.058594 L 169.28125 23.183594 C 168.988281 23.332031 168.503906 23.527344 168.171875 23.632812 L 167.492188 23.414062 C 167.464844 23.402344 167.4375 23.398438 167.410156 23.386719 C 167.65625 23.332031 167.910156 23.261719 168.09375 23.203125 L 168.703125 22.996094 C 169.042969 22.882812 169.554688 22.617188 169.84375 22.402344 Z M 170.074219 23.980469 C 170.039062 23.933594 169.96875 23.902344 169.914062 23.894531 L 169.90625 23.894531 C 169.851562 23.890625 169.777344 23.910156 169.726562 23.945312 L 169.609375 24.035156 C 169.601562 24.039062 169.597656 24.046875 169.59375 24.050781 C 169.65625 23.886719 169.78125 23.777344 169.914062 23.789062 C 170.089844 23.804688 170.214844 24.027344 170.195312 24.285156 C 170.171875 24.546875 170.011719 24.746094 169.832031 24.730469 C 169.816406 24.730469 169.796875 24.722656 169.78125 24.71875 C 169.875 24.652344 169.960938 24.574219 170.019531 24.507812 C 170.082031 24.441406 170.140625 24.3125 170.148438 24.222656 C 170.15625 24.144531 170.125 24.042969 170.074219 23.980469 Z M 169.695312 24.148438 L 169.816406 24.058594 C 169.832031 24.042969 169.875 24.03125 169.894531 24.03125 L 169.902344 24.03125 C 169.921875 24.035156 169.957031 24.054688 169.96875 24.066406 C 169.992188 24.097656 170.011719 24.164062 170.011719 24.207031 C 170.007812 24.269531 169.960938 24.363281 169.917969 24.40625 C 169.792969 24.539062 169.546875 24.722656 169.382812 24.808594 L 169.136719 24.933594 C 168.851562 25.074219 168.390625 25.261719 168.0625 25.371094 L 167.347656 25.152344 C 167.324219 25.144531 167.300781 25.136719 167.277344 25.125 C 167.519531 25.070312 167.765625 25.003906 167.949219 24.945312 L 168.554688 24.742188 C 168.898438 24.628906 169.410156 24.363281 169.695312 24.148438 Z M 168.460938 25.375 C 168.457031 25.414062 168.453125 25.453125 168.449219 25.492188 L 168.289062 25.441406 C 168.34375 25.421875 168.402344 25.398438 168.460938 25.375 Z M 167.023438 25.039062 C 166.734375 24.929688 166.402344 24.785156 166.183594 24.671875 L 165.617188 24.371094 C 165.574219 24.34375 165.527344 24.320312 165.476562 24.289062 C 165.476562 24.28125 165.476562 24.277344 165.476562 24.265625 C 165.859375 24.214844 166.460938 24.136719 166.734375 24.101562 L 166.828125 24.089844 C 166.910156 24.078125 167 24.058594 167.101562 24.042969 C 167.195312 24.078125 167.285156 24.109375 167.367188 24.132812 L 167.511719 24.179688 C 167.792969 24.265625 168.292969 24.433594 168.578125 24.527344 C 168.574219 24.550781 168.570312 24.570312 168.566406 24.589844 C 168.550781 24.597656 168.527344 24.605469 168.511719 24.613281 L 167.902344 24.816406 C 167.667969 24.894531 167.324219 24.980469 167.023438 25.039062 Z M 168.730469 23.582031 C 168.714844 23.652344 168.707031 23.726562 168.691406 23.800781 L 168.398438 23.707031 C 168.503906 23.671875 168.617188 23.625 168.730469 23.582031 Z M 165.820312 23.464844 L 165.457031 23.5 C 165.453125 23.414062 165.453125 23.332031 165.449219 23.242188 C 165.570312 23.320312 165.699219 23.394531 165.820312 23.464844 Z M 165.367188 23.992188 C 165.378906 23.90625 165.394531 23.796875 165.410156 23.652344 L 166.035156 23.585938 C 166.054688 23.59375 166.078125 23.609375 166.101562 23.621094 L 166.1875 23.660156 C 166.363281 23.746094 166.605469 23.855469 166.839844 23.949219 C 166.832031 23.949219 166.820312 23.953125 166.808594 23.953125 L 166.714844 23.964844 C 166.414062 24.007812 165.714844 24.101562 165.347656 24.144531 C 165.347656 24.105469 165.355469 24.050781 165.367188 23.992188 Z M 169.9375 25.652344 C 169.898438 25.605469 169.828125 25.570312 169.773438 25.5625 L 169.765625 25.5625 C 169.710938 25.558594 169.636719 25.582031 169.59375 25.617188 L 169.472656 25.707031 C 169.46875 25.710938 169.460938 25.714844 169.457031 25.71875 C 169.519531 25.558594 169.644531 25.445312 169.777344 25.460938 C 169.953125 25.472656 170.078125 25.699219 170.058594 25.957031 C 170.039062 26.214844 169.875 26.414062 169.699219 26.402344 C 169.683594 26.402344 169.664062 26.394531 169.648438 26.390625 C 169.738281 26.320312 169.824219 26.246094 169.886719 26.179688 C 169.949219 26.109375 170.011719 25.984375 170.015625 25.894531 C 170.015625 25.8125 169.984375 25.710938 169.9375 25.652344 Z M 169.554688 25.816406 L 169.671875 25.726562 C 169.691406 25.714844 169.730469 25.703125 169.753906 25.703125 L 169.757812 25.703125 C 169.78125 25.703125 169.816406 25.722656 169.824219 25.738281 C 169.851562 25.769531 169.871094 25.835938 169.867188 25.875 C 169.859375 25.9375 169.820312 26.03125 169.777344 26.078125 C 169.652344 26.210938 169.40625 26.394531 169.242188 26.476562 L 168.992188 26.601562 C 168.707031 26.746094 168.246094 26.933594 167.917969 27.039062 L 167.203125 26.820312 C 167.179688 26.8125 167.15625 26.808594 167.128906 26.796875 C 167.375 26.742188 167.621094 26.675781 167.800781 26.617188 L 168.410156 26.410156 C 168.757812 26.300781 169.269531 26.03125 169.554688 25.816406 Z M 169.917969 27.476562 C 169.882812 27.429688 169.808594 27.390625 169.75 27.386719 L 169.742188 27.386719 C 169.683594 27.382812 169.605469 27.402344 169.558594 27.4375 L 169.433594 27.53125 C 169.425781 27.535156 169.417969 27.542969 169.410156 27.546875 C 169.476562 27.375 169.605469 27.261719 169.746094 27.273438 C 169.929688 27.285156 170.0625 27.523438 170.042969 27.792969 C 170.015625 28.0625 169.851562 28.273438 169.664062 28.257812 C 169.648438 28.257812 169.632812 28.25 169.613281 28.246094 C 169.710938 28.175781 169.800781 28.09375 169.867188 28.027344 C 169.933594 27.960938 169.992188 27.828125 170 27.730469 C 170.003906 27.648438 169.972656 27.539062 169.917969 27.476562 Z M 169.523438 27.648438 L 169.648438 27.554688 C 169.664062 27.542969 169.707031 27.53125 169.730469 27.53125 L 169.738281 27.53125 C 169.757812 27.535156 169.792969 27.554688 169.808594 27.570312 C 169.835938 27.601562 169.855469 27.675781 169.855469 27.714844 C 169.847656 27.78125 169.804688 27.878906 169.757812 27.929688 C 169.628906 28.066406 169.371094 28.257812 169.199219 28.34375 L 168.9375 28.476562 C 168.636719 28.625 168.144531 28.828125 167.796875 28.941406 L 167.066406 28.710938 C 167.039062 28.707031 167.015625 28.695312 166.984375 28.683594 C 167.242188 28.625 167.503906 28.554688 167.695312 28.492188 L 168.332031 28.28125 C 168.6875 28.15625 169.21875 27.875 169.523438 27.648438 Z M 168.167969 28.960938 C 168.167969 28.992188 168.164062 29.019531 168.164062 29.050781 L 168.03125 29.007812 C 168.078125 28.992188 168.121094 28.976562 168.167969 28.960938 Z M 166.722656 28.585938 C 166.421875 28.46875 166.078125 28.316406 165.855469 28.199219 L 165.453125 27.988281 C 165.460938 27.878906 165.464844 27.773438 165.46875 27.667969 L 165.488281 27.664062 C 165.792969 27.617188 166.140625 27.558594 166.449219 27.519531 L 166.542969 27.503906 C 166.625 27.492188 166.714844 27.476562 166.816406 27.460938 C 166.910156 27.492188 167 27.523438 167.082031 27.550781 L 167.226562 27.59375 C 167.5 27.679688 167.917969 27.8125 168.21875 27.914062 C 168.210938 27.996094 168.207031 28.082031 168.203125 28.164062 L 167.648438 28.351562 C 167.402344 28.429688 167.039062 28.523438 166.722656 28.585938 Z M 168.28125 27.058594 C 168.277344 27.089844 168.277344 27.117188 168.273438 27.148438 L 168.148438 27.109375 C 168.191406 27.09375 168.234375 27.078125 168.28125 27.058594 Z M 165.925781 25.347656 C 165.933594 25.351562 165.945312 25.359375 165.953125 25.363281 L 166.039062 25.402344 C 166.210938 25.492188 166.457031 25.597656 166.695312 25.691406 C 166.683594 25.691406 166.675781 25.695312 166.664062 25.695312 L 166.570312 25.710938 C 166.414062 25.730469 166.246094 25.757812 166.085938 25.785156 C 165.886719 25.820312 165.675781 25.855469 165.484375 25.875 C 165.476562 25.875 165.472656 25.875 165.460938 25.875 C 165.449219 25.867188 165.414062 25.804688 165.453125 25.414062 Z M 165.496094 25.105469 C 165.570312 25.152344 165.644531 25.191406 165.71875 25.234375 L 165.5 25.265625 C 165.5 25.214844 165.496094 25.15625 165.496094 25.105469 Z M 165.503906 26.015625 C 165.699219 25.992188 165.90625 25.957031 166.109375 25.925781 C 166.269531 25.898438 166.433594 25.871094 166.585938 25.847656 L 166.679688 25.835938 C 166.765625 25.824219 166.855469 25.808594 166.957031 25.789062 C 167.050781 25.824219 167.140625 25.855469 167.21875 25.878906 L 167.367188 25.925781 C 167.636719 26.007812 168.058594 26.144531 168.359375 26.246094 C 168.359375 26.257812 168.355469 26.273438 168.355469 26.285156 L 167.761719 26.484375 C 167.527344 26.558594 167.1875 26.648438 166.878906 26.710938 C 166.585938 26.597656 166.261719 26.457031 166.042969 26.339844 L 165.5 26.054688 C 165.503906 26.039062 165.503906 26.027344 165.503906 26.015625 Z M 165.632812 26.933594 L 165.488281 26.960938 C 165.488281 26.925781 165.492188 26.890625 165.492188 26.855469 C 165.539062 26.882812 165.585938 26.910156 165.632812 26.933594 Z M 165.476562 27.105469 L 165.832031 27.039062 L 165.898438 27.070312 C 166.074219 27.15625 166.316406 27.265625 166.554688 27.359375 C 166.546875 27.359375 166.535156 27.363281 166.523438 27.363281 L 166.429688 27.375 C 166.125 27.417969 165.777344 27.472656 165.46875 27.523438 L 165.425781 27.527344 C 165.433594 27.460938 165.449219 27.332031 165.476562 27.105469 Z M 169.808594 29.371094 C 169.769531 29.324219 169.695312 29.285156 169.632812 29.28125 L 169.628906 29.28125 C 169.566406 29.277344 169.488281 29.300781 169.441406 29.335938 L 169.316406 29.429688 C 169.308594 29.429688 169.300781 29.4375 169.292969 29.441406 C 169.359375 29.269531 169.492188 29.152344 169.632812 29.164062 C 169.820312 29.179688 169.949219 29.417969 169.929688 29.691406 C 169.90625 29.964844 169.734375 30.179688 169.546875 30.164062 C 169.53125 30.160156 169.507812 30.15625 169.492188 30.152344 C 169.589844 30.078125 169.683594 30 169.75 29.929688 C 169.820312 29.859375 169.878906 29.726562 169.886719 29.625 C 169.894531 29.546875 169.859375 29.433594 169.808594 29.371094 Z M 169.40625 29.546875 L 169.53125 29.453125 C 169.546875 29.4375 169.59375 29.425781 169.613281 29.429688 L 169.621094 29.429688 C 169.640625 29.429688 169.679688 29.449219 169.691406 29.464844 C 169.71875 29.496094 169.738281 29.570312 169.734375 29.613281 C 169.726562 29.679688 169.6875 29.777344 169.636719 29.828125 C 169.503906 29.96875 169.242188 30.160156 169.066406 30.25 L 168.804688 30.382812 C 168.496094 30.535156 167.996094 30.742188 167.644531 30.855469 L 166.902344 30.621094 C 166.875 30.617188 166.847656 30.605469 166.820312 30.59375 C 167.082031 30.535156 167.347656 30.464844 167.539062 30.398438 L 168.1875 30.183594 C 168.554688 30.058594 169.097656 29.773438 169.40625 29.546875 Z M 168.195312 31.023438 L 167.890625 30.929688 C 167.984375 30.894531 168.082031 30.859375 168.179688 30.820312 C 168.183594 30.890625 168.191406 30.960938 168.195312 31.023438 Z M 165.625 28.929688 L 165.699219 28.964844 C 165.882812 29.058594 166.132812 29.167969 166.382812 29.269531 C 166.371094 29.269531 166.363281 29.273438 166.351562 29.273438 L 166.253906 29.285156 C 165.960938 29.324219 165.640625 29.367188 165.289062 29.425781 C 165.300781 29.351562 165.316406 29.214844 165.34375 28.980469 Z M 165.394531 28.816406 C 165.394531 28.8125 165.394531 28.808594 165.394531 28.804688 C 165.402344 28.808594 165.40625 28.8125 165.414062 28.8125 Z M 165.316406 29.566406 C 165.664062 29.511719 165.984375 29.46875 166.269531 29.429688 L 166.367188 29.414062 C 166.457031 29.402344 166.554688 29.386719 166.652344 29.367188 C 166.753906 29.402344 166.84375 29.4375 166.929688 29.460938 L 167.082031 29.511719 C 167.375 29.601562 167.828125 29.746094 168.144531 29.855469 C 168.144531 29.917969 168.144531 29.980469 168.144531 30.039062 C 168.144531 30.039062 168.140625 30.039062 168.140625 30.042969 L 167.492188 30.257812 C 167.246094 30.339844 166.878906 30.433594 166.554688 30.496094 C 166.25 30.378906 165.902344 30.226562 165.671875 30.105469 L 165.265625 29.890625 C 165.289062 29.785156 165.304688 29.679688 165.316406 29.566406 Z M 167.441406 31.597656 C 167.113281 31.597656 166.769531 31.585938 166.429688 31.554688 C 166.101562 31.527344 165.796875 31.492188 165.515625 31.4375 C 165.730469 31.40625 165.941406 31.375 166.105469 31.355469 L 166.207031 31.339844 C 166.292969 31.332031 166.394531 31.3125 166.496094 31.292969 C 166.597656 31.328125 166.691406 31.363281 166.777344 31.386719 L 166.871094 31.417969 C 167.03125 31.464844 167.230469 31.53125 167.441406 31.597656 Z M 165.230469 30.730469 L 165.109375 30.75 C 165.117188 30.722656 165.125 30.699219 165.125 30.671875 C 165.160156 30.691406 165.199219 30.710938 165.230469 30.730469 Z M 165.445312 30.84375 L 165.523438 30.882812 C 165.710938 30.976562 165.964844 31.085938 166.21875 31.1875 C 166.207031 31.1875 166.195312 31.191406 166.183594 31.191406 L 166.082031 31.207031 C 165.816406 31.242188 165.429688 31.300781 165.09375 31.347656 C 165.027344 31.332031 164.957031 31.3125 164.890625 31.292969 L 165.027344 30.917969 Z M 169.695312 31.0625 C 169.578125 31.054688 169.472656 31.160156 169.4375 31.3125 C 169.402344 31.347656 169.367188 31.378906 169.320312 31.402344 C 169.320312 31.398438 169.320312 31.390625 169.320312 31.382812 C 169.347656 31.109375 169.515625 30.898438 169.703125 30.910156 C 169.890625 30.929688 170.023438 31.164062 170.003906 31.4375 C 169.980469 31.671875 169.855469 31.859375 169.703125 31.898438 C 169.851562 31.757812 169.886719 31.617188 169.890625 31.5 C 169.898438 31.476562 169.902344 31.453125 169.902344 31.429688 C 169.921875 31.234375 169.828125 31.074219 169.695312 31.0625 Z M 166.671875 32.296875 C 167.398438 32.355469 168.046875 32.363281 168.539062 32.3125 C 168.90625 32.949219 169.441406 33.386719 169.777344 33.628906 C 168.347656 33.691406 166.445312 33.574219 165.050781 33.457031 C 164.296875 33.394531 163.667969 33.328125 163.300781 33.289062 C 163.804688 33.019531 164.292969 32.71875 164.675781 31.976562 C 165.28125 32.140625 166.039062 32.242188 166.671875 32.296875 Z M 163.511719 33.546875 C 163.847656 33.582031 164.382812 33.632812 165.03125 33.6875 C 166.496094 33.808594 168.523438 33.933594 169.984375 33.851562 C 169.609375 34.960938 169.113281 35.929688 168.433594 36.554688 C 167.664062 37.257812 166.730469 37.53125 165.867188 37.304688 C 164.699219 36.992188 163.730469 35.796875 163.136719 33.929688 C 163.089844 33.78125 163.042969 33.632812 163 33.488281 C 163.105469 33.5 163.261719 33.519531 163.511719 33.546875 Z M 161.667969 30.113281 C 161.703125 28.253906 162.074219 26.277344 162.503906 24.199219 C 162.074219 28.816406 161.976562 31.023438 162.921875 33.996094 C 163.539062 35.9375 164.566406 37.191406 165.8125 37.523438 C 166.75 37.773438 167.765625 37.480469 168.59375 36.71875 C 169.316406 36.054688 169.84375 35.015625 170.234375 33.835938 L 170.273438 33.699219 C 170.863281 31.84375 171.121094 29.667969 171.273438 28.035156 C 171.316406 28.40625 171.367188 28.824219 171.414062 29.292969 C 171.523438 30.308594 171.375 31.582031 171.003906 32.867188 C 170.566406 34.375 169.820312 35.878906 168.855469 37.214844 C 168.296875 37.988281 167.335938 38.371094 166.21875 38.28125 C 164.925781 38.175781 163.753906 37.453125 163.230469 36.445312 L 163.222656 36.429688 C 162.113281 34.523438 161.613281 32.519531 161.667969 30.113281 Z M 161.667969 30.113281 " fill-opacity="1" fill-rule="nonzero"/></g><g clip-path="url(#a701305b7e)"><path fill="#000000" d="M 176.371094 21.363281 C 176.398438 21.359375 176.425781 21.351562 176.453125 21.339844 C 176.65625 21.261719 176.734375 20.96875 176.621094 20.6875 C 176.527344 20.453125 176.324219 20.289062 176.136719 20.308594 C 176.109375 20.308594 176.082031 20.316406 176.054688 20.324219 C 175.953125 20.363281 175.882812 20.453125 175.851562 20.582031 C 175.820312 20.703125 175.835938 20.839844 175.886719 20.976562 C 175.980469 21.214844 176.183594 21.375 176.371094 21.363281 Z M 175.921875 20.597656 C 175.945312 20.496094 176.003906 20.421875 176.082031 20.394531 C 176.105469 20.386719 176.125 20.378906 176.144531 20.378906 C 176.300781 20.367188 176.472656 20.507812 176.554688 20.714844 C 176.648438 20.960938 176.59375 21.210938 176.429688 21.273438 C 176.410156 21.277344 176.390625 21.285156 176.367188 21.285156 C 176.210938 21.300781 176.039062 21.15625 175.957031 20.949219 C 175.910156 20.832031 175.898438 20.707031 175.921875 20.597656 Z M 176.328125 21.152344 C 176.347656 21.152344 176.359375 21.148438 176.375 21.140625 C 176.433594 21.117188 176.476562 21.058594 176.492188 20.984375 C 176.507812 20.910156 176.5 20.828125 176.46875 20.75 C 176.410156 20.605469 176.292969 20.507812 176.183594 20.519531 C 176.167969 20.519531 176.152344 20.523438 176.136719 20.527344 C 176.019531 20.574219 175.976562 20.746094 176.042969 20.917969 C 176.101562 21.0625 176.21875 21.160156 176.328125 21.152344 Z M 176.160156 20.59375 C 176.238281 20.5625 176.347656 20.652344 176.394531 20.777344 C 176.421875 20.84375 176.429688 20.914062 176.417969 20.972656 C 176.40625 21.027344 176.378906 21.0625 176.34375 21.078125 C 176.335938 21.082031 176.324219 21.085938 176.320312 21.085938 C 176.242188 21.089844 176.152344 21.007812 176.105469 20.898438 C 176.058594 20.761719 176.082031 20.625 176.160156 20.59375 Z M 182.449219 19.78125 C 182.257812 19.796875 182.085938 19.992188 182.035156 20.242188 C 181.972656 20.535156 182.097656 20.808594 182.308594 20.855469 C 182.335938 20.863281 182.363281 20.863281 182.390625 20.859375 C 182.578125 20.839844 182.753906 20.652344 182.804688 20.402344 C 182.832031 20.261719 182.824219 20.121094 182.773438 20.003906 C 182.722656 19.886719 182.636719 19.808594 182.53125 19.785156 C 182.503906 19.78125 182.476562 19.777344 182.449219 19.78125 Z M 182.703125 20.035156 C 182.75 20.136719 182.757812 20.261719 182.734375 20.386719 C 182.6875 20.605469 182.542969 20.777344 182.386719 20.785156 C 182.363281 20.789062 182.34375 20.785156 182.320312 20.78125 C 182.148438 20.746094 182.050781 20.507812 182.101562 20.253906 C 182.148438 20.035156 182.292969 19.867188 182.449219 19.855469 C 182.472656 19.851562 182.492188 19.855469 182.511719 19.859375 C 182.597656 19.875 182.664062 19.9375 182.703125 20.035156 Z M 182.4375 19.996094 C 182.324219 20.003906 182.226562 20.121094 182.195312 20.273438 C 182.175781 20.355469 182.179688 20.4375 182.207031 20.507812 C 182.234375 20.582031 182.289062 20.628906 182.351562 20.644531 C 182.363281 20.648438 182.382812 20.648438 182.398438 20.648438 C 182.511719 20.636719 182.609375 20.523438 182.640625 20.371094 C 182.679688 20.1875 182.609375 20.027344 182.484375 20 C 182.472656 19.996094 182.453125 19.996094 182.4375 19.996094 Z M 182.570312 20.351562 C 182.542969 20.46875 182.46875 20.566406 182.390625 20.574219 C 182.382812 20.574219 182.375 20.574219 182.363281 20.570312 C 182.324219 20.5625 182.292969 20.53125 182.273438 20.480469 C 182.253906 20.425781 182.25 20.355469 182.261719 20.285156 C 182.289062 20.152344 182.386719 20.050781 182.46875 20.066406 C 182.550781 20.089844 182.601562 20.214844 182.570312 20.351562 Z M 179.273438 21.523438 C 179.878906 21.46875 180.507812 21.304688 181.132812 21.019531 C 181.210938 20.980469 181.265625 20.921875 181.261719 20.855469 L 181.234375 19.808594 C 181.234375 19.800781 181.230469 19.792969 181.222656 19.785156 L 181.21875 19.667969 C 181.21875 19.648438 181.207031 19.632812 181.179688 19.625 C 181.175781 19.621094 181.167969 19.621094 181.15625 19.625 C 181.148438 19.625 181.140625 19.628906 181.125 19.632812 C 180.847656 19.785156 180.101562 20.152344 179.128906 20.230469 C 178.511719 20.28125 177.910156 20.207031 177.351562 20.007812 C 177.328125 20 177.3125 20.003906 177.300781 20.007812 C 177.277344 20.019531 177.265625 20.035156 177.269531 20.054688 L 177.277344 20.195312 L 177.347656 21.003906 L 177.359375 21.148438 C 177.363281 21.203125 177.402344 21.25 177.46875 21.277344 C 177.714844 21.378906 178.347656 21.597656 179.273438 21.523438 Z M 181.179688 19.839844 L 181.179688 19.804688 Z M 181.171875 19.699219 C 181.167969 19.699219 181.167969 19.699219 181.171875 19.699219 L 181.167969 19.660156 Z M 177.355469 20.089844 C 177.917969 20.285156 178.519531 20.359375 179.148438 20.308594 C 180.109375 20.226562 180.859375 19.871094 181.152344 19.710938 L 181.15625 19.773438 C 181.152344 19.773438 181.152344 19.773438 181.148438 19.777344 C 180.871094 19.929688 180.125 20.292969 179.152344 20.371094 C 178.535156 20.425781 177.9375 20.347656 177.375 20.152344 C 177.371094 20.152344 177.367188 20.148438 177.363281 20.148438 Z M 177.441406 21.144531 L 177.433594 21 L 177.367188 20.226562 C 177.929688 20.425781 178.53125 20.496094 179.15625 20.445312 C 180.121094 20.367188 180.867188 20.007812 181.164062 19.847656 L 181.191406 20.855469 C 181.191406 20.886719 181.160156 20.925781 181.109375 20.949219 C 180.488281 21.230469 179.871094 21.398438 179.273438 21.445312 C 178.363281 21.523438 177.742188 21.308594 177.515625 21.210938 C 177.46875 21.195312 177.445312 21.171875 177.441406 21.144531 Z M 174.695312 20.613281 C 175.246094 24.207031 175.246094 24.207031 174.996094 25.890625 C 174.890625 26.609375 174.738281 27.589844 174.570312 29.234375 C 174.453125 30.328125 174.609375 31.679688 175 33.03125 C 175.457031 34.609375 176.230469 36.179688 177.242188 37.566406 C 177.921875 38.511719 179.078125 38.988281 180.40625 38.875 C 181.898438 38.75 183.257812 37.90625 183.871094 36.722656 C 185.042969 34.722656 185.558594 32.617188 185.507812 30.101562 C 185.460938 27.855469 184.953125 25.480469 184.421875 22.964844 L 184.324219 22.5 C 184.257812 22.179688 183.613281 18.0625 183.519531 16.996094 C 183.375 15.355469 183.28125 14.273438 182.4375 12.371094 C 181.757812 10.855469 180.203125 10.007812 178.375 10.160156 C 176.992188 10.277344 175.722656 10.9375 174.894531 11.980469 C 174.074219 13.007812 173.757812 14.3125 173.964844 15.757812 C 174.269531 17.875 174.515625 19.457031 174.695312 20.613281 Z M 184.910156 30.113281 C 184.960938 32.515625 184.464844 34.523438 183.351562 36.429688 L 183.34375 36.441406 C 182.824219 37.453125 181.652344 38.171875 180.355469 38.277344 C 179.242188 38.371094 178.28125 37.984375 177.722656 37.210938 C 176.753906 35.878906 176.007812 34.371094 175.570312 32.863281 C 175.199219 31.578125 175.054688 30.308594 175.160156 29.289062 C 175.210938 28.816406 175.257812 28.402344 175.304688 28.03125 C 175.453125 29.664062 175.714844 31.839844 176.300781 33.695312 L 176.347656 33.832031 C 176.738281 35.011719 177.265625 36.054688 177.984375 36.714844 C 178.8125 37.476562 179.824219 37.769531 180.765625 37.519531 C 182.011719 37.195312 183.039062 35.941406 183.65625 34 C 184.605469 31.027344 184.507812 28.816406 184.070312 24.203125 C 184.507812 26.277344 184.871094 28.253906 184.910156 30.113281 Z M 176.671875 31.429688 C 176.675781 31.457031 176.675781 31.480469 176.679688 31.503906 C 176.683594 31.617188 176.722656 31.761719 176.867188 31.902344 C 176.714844 31.863281 176.589844 31.675781 176.570312 31.441406 C 176.546875 31.167969 176.679688 30.929688 176.867188 30.914062 C 177.054688 30.898438 177.226562 31.109375 177.25 31.386719 C 177.25 31.394531 177.25 31.398438 177.25 31.40625 C 177.210938 31.382812 177.171875 31.351562 177.136719 31.316406 C 177.097656 31.164062 176.992188 31.054688 176.878906 31.066406 C 176.75 31.074219 176.65625 31.234375 176.671875 31.429688 Z M 176.832031 31.523438 C 176.824219 31.410156 176.871094 31.3125 176.90625 31.265625 C 176.992188 31.378906 177.117188 31.535156 177.324219 31.59375 C 177.792969 31.726562 178.984375 31.804688 180.160156 31.707031 C 181.160156 31.621094 182.449219 31.390625 182.972656 30.761719 C 183.042969 30.796875 183.078125 30.84375 183.082031 30.90625 C 183.101562 31.113281 182.84375 31.414062 182.726562 31.480469 L 182.714844 31.488281 C 182.363281 31.773438 181.230469 32.035156 179.890625 32.148438 C 178.828125 32.242188 177.894531 32.207031 177.460938 32.0625 C 177.074219 31.929688 176.855469 31.746094 176.832031 31.523438 Z M 176.6875 29.625 C 176.695312 29.722656 176.757812 29.859375 176.824219 29.929688 C 176.890625 30 176.980469 30.082031 177.082031 30.152344 C 177.0625 30.160156 177.046875 30.164062 177.023438 30.164062 C 176.835938 30.179688 176.667969 29.96875 176.644531 29.691406 C 176.617188 29.417969 176.753906 29.179688 176.941406 29.164062 C 177.082031 29.152344 177.214844 29.269531 177.277344 29.441406 C 177.273438 29.4375 177.265625 29.429688 177.257812 29.429688 L 177.132812 29.335938 C 177.085938 29.300781 177.007812 29.273438 176.945312 29.28125 L 176.9375 29.28125 C 176.875 29.285156 176.800781 29.328125 176.765625 29.371094 C 176.714844 29.433594 176.679688 29.546875 176.6875 29.625 Z M 176.933594 29.828125 C 176.890625 29.777344 176.84375 29.679688 176.835938 29.613281 C 176.832031 29.570312 176.855469 29.496094 176.882812 29.464844 C 176.898438 29.449219 176.929688 29.429688 176.957031 29.429688 L 176.960938 29.429688 C 176.988281 29.425781 177.027344 29.4375 177.046875 29.453125 L 177.171875 29.546875 C 177.476562 29.773438 178.019531 30.058594 178.382812 30.179688 L 179.027344 30.398438 C 179.222656 30.460938 179.488281 30.53125 179.75 30.589844 C 179.71875 30.601562 179.691406 30.609375 179.664062 30.617188 L 178.925781 30.851562 C 178.574219 30.738281 178.070312 30.53125 177.765625 30.378906 L 177.5 30.246094 C 177.328125 30.160156 177.066406 29.96875 176.933594 29.828125 Z M 176.578125 27.726562 C 176.585938 27.824219 176.644531 27.957031 176.714844 28.023438 C 176.78125 28.09375 176.871094 28.171875 176.964844 28.242188 C 176.949219 28.25 176.929688 28.253906 176.914062 28.253906 C 176.730469 28.269531 176.558594 28.058594 176.539062 27.789062 C 176.515625 27.519531 176.644531 27.285156 176.832031 27.269531 C 176.96875 27.257812 177.097656 27.367188 177.164062 27.542969 C 177.15625 27.539062 177.152344 27.53125 177.144531 27.527344 L 177.019531 27.433594 C 176.96875 27.398438 176.894531 27.375 176.832031 27.382812 L 176.828125 27.382812 C 176.765625 27.386719 176.695312 27.425781 176.65625 27.472656 C 176.609375 27.539062 176.574219 27.648438 176.578125 27.726562 Z M 176.820312 27.925781 C 176.773438 27.875 176.730469 27.777344 176.726562 27.710938 C 176.722656 27.671875 176.742188 27.601562 176.769531 27.566406 C 176.785156 27.550781 176.820312 27.53125 176.839844 27.527344 L 176.847656 27.527344 C 176.867188 27.523438 176.914062 27.539062 176.929688 27.554688 L 177.054688 27.648438 C 177.355469 27.871094 177.890625 28.152344 178.25 28.273438 L 178.886719 28.484375 C 179.078125 28.546875 179.339844 28.617188 179.59375 28.675781 C 179.566406 28.683594 179.539062 28.691406 179.511719 28.703125 L 178.78125 28.929688 C 178.4375 28.816406 177.945312 28.617188 177.640625 28.464844 L 177.378906 28.335938 C 177.210938 28.253906 176.953125 28.0625 176.820312 27.925781 Z M 176.566406 25.890625 C 176.574219 25.984375 176.628906 26.109375 176.695312 26.175781 C 176.757812 26.242188 176.84375 26.3125 176.933594 26.386719 C 176.917969 26.394531 176.898438 26.398438 176.882812 26.398438 C 176.707031 26.410156 176.546875 26.214844 176.523438 25.953125 C 176.503906 25.691406 176.628906 25.46875 176.804688 25.457031 C 176.9375 25.445312 177.0625 25.554688 177.125 25.714844 C 177.117188 25.714844 177.113281 25.707031 177.109375 25.703125 L 176.992188 25.613281 C 176.945312 25.578125 176.871094 25.558594 176.816406 25.558594 L 176.808594 25.558594 C 176.75 25.5625 176.679688 25.601562 176.644531 25.648438 C 176.589844 25.710938 176.558594 25.8125 176.566406 25.890625 Z M 176.796875 26.082031 C 176.753906 26.035156 176.707031 25.941406 176.707031 25.878906 C 176.703125 25.839844 176.722656 25.773438 176.746094 25.742188 C 176.761719 25.726562 176.796875 25.707031 176.8125 25.707031 L 176.820312 25.707031 C 176.839844 25.707031 176.882812 25.714844 176.898438 25.730469 L 177.019531 25.820312 C 177.304688 26.035156 177.816406 26.304688 178.160156 26.417969 L 178.769531 26.621094 C 178.949219 26.683594 179.195312 26.746094 179.4375 26.804688 C 179.414062 26.808594 179.390625 26.820312 179.367188 26.828125 L 178.652344 27.046875 C 178.324219 26.9375 177.863281 26.75 177.578125 26.609375 L 177.328125 26.484375 C 177.167969 26.398438 176.925781 26.214844 176.796875 26.082031 Z M 176.425781 24.21875 C 176.433594 24.3125 176.488281 24.4375 176.554688 24.503906 C 176.617188 24.570312 176.707031 24.644531 176.796875 24.714844 C 176.777344 24.722656 176.761719 24.726562 176.742188 24.726562 C 176.566406 24.742188 176.40625 24.542969 176.382812 24.28125 C 176.359375 24.023438 176.484375 23.800781 176.664062 23.785156 C 176.796875 23.777344 176.917969 23.882812 176.984375 24.046875 C 176.976562 24.042969 176.96875 24.035156 176.964844 24.03125 L 176.847656 23.941406 C 176.800781 23.90625 176.730469 23.886719 176.671875 23.890625 L 176.664062 23.890625 C 176.605469 23.894531 176.535156 23.933594 176.5 23.976562 C 176.453125 24.042969 176.421875 24.144531 176.425781 24.21875 Z M 176.65625 24.410156 C 176.613281 24.367188 176.574219 24.273438 176.566406 24.210938 C 176.5625 24.167969 176.582031 24.101562 176.609375 24.070312 C 176.621094 24.058594 176.65625 24.035156 176.675781 24.035156 L 176.679688 24.035156 C 176.703125 24.03125 176.742188 24.046875 176.761719 24.058594 L 176.878906 24.152344 C 177.167969 24.367188 177.675781 24.632812 178.019531 24.746094 L 178.628906 24.953125 C 178.808594 25.011719 179.054688 25.078125 179.300781 25.132812 C 179.277344 25.140625 179.25 25.152344 179.226562 25.15625 L 178.515625 25.375 C 178.183594 25.269531 177.722656 25.082031 177.4375 24.9375 L 177.1875 24.8125 C 177.027344 24.726562 176.785156 24.542969 176.65625 24.410156 Z M 176.28125 22.472656 C 176.289062 22.566406 176.34375 22.691406 176.410156 22.761719 C 176.472656 22.828125 176.558594 22.902344 176.648438 22.972656 C 176.632812 22.980469 176.613281 22.984375 176.597656 22.984375 C 176.421875 22.996094 176.261719 22.800781 176.234375 22.539062 C 176.214844 22.277344 176.339844 22.058594 176.515625 22.042969 C 176.648438 22.03125 176.773438 22.140625 176.835938 22.304688 C 176.832031 22.300781 176.824219 22.292969 176.820312 22.289062 L 176.703125 22.199219 C 176.65625 22.164062 176.582031 22.144531 176.523438 22.148438 L 176.515625 22.148438 C 176.457031 22.152344 176.390625 22.1875 176.355469 22.234375 C 176.304688 22.296875 176.273438 22.398438 176.28125 22.472656 Z M 176.511719 22.664062 C 176.46875 22.621094 176.425781 22.527344 176.421875 22.464844 C 176.417969 22.421875 176.4375 22.355469 176.460938 22.324219 C 176.476562 22.308594 176.511719 22.289062 176.527344 22.289062 L 176.535156 22.289062 C 176.554688 22.285156 176.597656 22.300781 176.613281 22.3125 L 176.734375 22.402344 C 177.019531 22.621094 177.53125 22.886719 177.875 23 L 178.484375 23.207031 C 178.667969 23.269531 178.921875 23.335938 179.167969 23.390625 C 179.140625 23.402344 179.109375 23.410156 179.085938 23.417969 L 178.402344 23.636719 C 178.070312 23.527344 177.589844 23.335938 177.296875 23.1875 L 177.046875 23.0625 C 176.882812 22.980469 176.636719 22.796875 176.511719 22.664062 Z M 176.660156 19.234375 C 177.015625 19.027344 177.5625 19.214844 177.886719 19.328125 C 178 19.367188 178.089844 19.398438 178.148438 19.40625 C 178.601562 19.472656 179.5625 19.40625 180 19.242188 L 180.03125 19.226562 C 181.148438 18.792969 181.644531 18.601562 182.078125 19.15625 C 181.980469 19.398438 181.867188 19.636719 181.75 19.871094 C 181.480469 20.433594 181.203125 21.007812 181.179688 21.574219 L 181.171875 21.878906 C 181.164062 22.0625 181.160156 22.242188 181.152344 22.410156 C 181.03125 22.496094 180.917969 22.566406 180.8125 22.621094 L 180.246094 22.925781 C 180.03125 23.039062 179.707031 23.183594 179.417969 23.296875 C 179.113281 23.234375 178.769531 23.148438 178.53125 23.066406 L 177.921875 22.863281 C 177.855469 22.839844 177.785156 22.808594 177.703125 22.777344 C 177.632812 22.417969 177.558594 22.058594 177.476562 21.699219 C 177.402344 21.367188 176.972656 20.574219 176.34375 19.695312 C 176.402344 19.480469 176.511719 19.324219 176.660156 19.234375 Z M 182.363281 21.964844 C 182.355469 21.898438 182.316406 21.8125 182.265625 21.757812 C 182.261719 21.753906 182.261719 21.753906 182.257812 21.75 C 182.257812 21.746094 182.253906 21.746094 182.253906 21.742188 C 182.253906 21.742188 182.25 21.742188 182.25 21.742188 C 182.203125 21.695312 182.152344 21.671875 182.097656 21.675781 C 182.074219 21.675781 182.058594 21.683594 182.039062 21.691406 C 181.992188 21.703125 181.9375 21.730469 181.90625 21.765625 L 181.8125 21.867188 C 181.84375 21.683594 181.945312 21.546875 182.085938 21.53125 C 182.261719 21.519531 182.421875 21.714844 182.445312 21.976562 C 182.464844 22.238281 182.339844 22.460938 182.164062 22.472656 C 182.148438 22.472656 182.132812 22.472656 182.125 22.472656 C 182.1875 22.402344 182.246094 22.332031 182.289062 22.269531 C 182.335938 22.191406 182.371094 22.058594 182.363281 21.964844 Z M 181.902344 21.96875 L 182.003906 21.863281 C 182.015625 21.84375 182.054688 21.828125 182.074219 21.828125 L 182.082031 21.828125 C 182.101562 21.828125 182.136719 21.839844 182.15625 21.851562 C 182.1875 21.878906 182.21875 21.941406 182.222656 21.980469 C 182.226562 22.042969 182.199219 22.144531 182.164062 22.195312 C 182.066406 22.347656 181.851562 22.566406 181.703125 22.679688 L 181.476562 22.839844 C 181.199219 23.046875 180.71875 23.339844 180.410156 23.496094 L 180.324219 23.535156 C 180.011719 23.691406 179.496094 23.902344 179.164062 24.003906 L 179.019531 24.050781 C 178.730469 24.140625 178.203125 24.3125 177.925781 24.40625 L 177.863281 23.960938 L 179.125 23.554688 C 179.464844 23.445312 179.996094 23.21875 180.308594 23.054688 L 180.875 22.75 C 181.195312 22.578125 181.65625 22.230469 181.902344 21.96875 Z M 179.863281 23.964844 L 179.769531 23.949219 C 179.757812 23.949219 179.75 23.945312 179.738281 23.945312 C 179.972656 23.851562 180.21875 23.746094 180.390625 23.65625 L 180.480469 23.617188 C 180.5 23.605469 180.519531 23.59375 180.546875 23.582031 L 181.171875 23.648438 C 181.1875 23.792969 181.203125 23.902344 181.214844 23.988281 C 181.222656 24.050781 181.234375 24.105469 181.234375 24.140625 C 180.863281 24.097656 180.164062 24.003906 179.863281 23.964844 Z M 181.097656 24.269531 C 181.097656 24.277344 181.097656 24.28125 181.097656 24.292969 C 181.050781 24.320312 181.003906 24.347656 180.957031 24.371094 L 180.390625 24.675781 C 180.171875 24.792969 179.847656 24.933594 179.554688 25.042969 C 179.25 24.980469 178.910156 24.894531 178.671875 24.816406 L 178.066406 24.613281 C 178.046875 24.605469 178.027344 24.597656 178.007812 24.589844 C 178.007812 24.570312 178.003906 24.550781 178 24.527344 C 178.285156 24.433594 178.785156 24.265625 179.0625 24.179688 L 179.210938 24.132812 C 179.289062 24.109375 179.375 24.078125 179.472656 24.042969 C 179.574219 24.058594 179.664062 24.078125 179.75 24.089844 L 179.84375 24.101562 C 180.117188 24.140625 180.714844 24.21875 181.097656 24.269531 Z M 180.757812 23.464844 C 180.878906 23.394531 181.003906 23.316406 181.125 23.242188 C 181.121094 23.328125 181.117188 23.414062 181.117188 23.5 Z M 178.179688 23.707031 L 177.886719 23.800781 C 177.875 23.726562 177.863281 23.652344 177.847656 23.582031 C 177.960938 23.625 178.070312 23.671875 178.179688 23.707031 Z M 178.292969 25.441406 L 178.132812 25.492188 C 178.128906 25.453125 178.121094 25.414062 178.117188 25.375 C 178.175781 25.398438 178.230469 25.421875 178.292969 25.441406 Z M 179.273438 25.285156 C 179.613281 25.183594 180.144531 24.964844 180.457031 24.792969 L 181.023438 24.492188 C 181.339844 24.320312 181.800781 23.972656 182.046875 23.714844 L 182.148438 23.605469 C 182.164062 23.589844 182.199219 23.570312 182.222656 23.570312 L 182.226562 23.570312 C 182.25 23.566406 182.285156 23.582031 182.300781 23.59375 C 182.332031 23.621094 182.363281 23.683594 182.367188 23.722656 C 182.371094 23.785156 182.347656 23.886719 182.3125 23.9375 C 182.207031 24.089844 182 24.308594 181.847656 24.421875 L 181.625 24.585938 C 181.34375 24.789062 180.863281 25.082031 180.554688 25.238281 L 180.472656 25.277344 C 180.164062 25.433594 179.644531 25.644531 179.3125 25.746094 L 179.167969 25.792969 C 178.890625 25.878906 178.453125 26.019531 178.148438 26.121094 L 178.109375 25.648438 Z M 182.511719 23.714844 C 182.503906 23.644531 182.460938 23.558594 182.414062 23.503906 C 182.410156 23.5 182.410156 23.5 182.40625 23.496094 C 182.402344 23.496094 182.398438 23.492188 182.398438 23.488281 C 182.398438 23.488281 182.394531 23.488281 182.394531 23.488281 C 182.351562 23.441406 182.296875 23.417969 182.242188 23.421875 C 182.222656 23.421875 182.203125 23.429688 182.1875 23.4375 C 182.136719 23.449219 182.082031 23.476562 182.050781 23.511719 L 181.957031 23.613281 C 181.988281 23.429688 182.09375 23.292969 182.230469 23.28125 C 182.410156 23.269531 182.570312 23.464844 182.589844 23.726562 C 182.609375 23.988281 182.484375 24.210938 182.308594 24.222656 C 182.292969 24.222656 182.28125 24.222656 182.269531 24.222656 C 182.332031 24.152344 182.390625 24.082031 182.433594 24.019531 C 182.480469 23.9375 182.515625 23.808594 182.511719 23.714844 Z M 182.648438 25.382812 C 182.640625 25.3125 182.601562 25.230469 182.550781 25.175781 C 182.546875 25.171875 182.546875 25.171875 182.542969 25.167969 C 182.542969 25.164062 182.539062 25.160156 182.539062 25.15625 C 182.539062 25.15625 182.535156 25.15625 182.535156 25.152344 C 182.488281 25.109375 182.4375 25.085938 182.382812 25.089844 C 182.359375 25.089844 182.34375 25.09375 182.324219 25.105469 C 182.277344 25.117188 182.222656 25.144531 182.191406 25.179688 L 182.097656 25.277344 C 182.128906 25.09375 182.230469 24.960938 182.371094 24.949219 C 182.546875 24.933594 182.707031 25.132812 182.730469 25.394531 C 182.75 25.652344 182.625 25.875 182.449219 25.890625 C 182.433594 25.890625 182.417969 25.890625 182.410156 25.890625 C 182.472656 25.820312 182.53125 25.746094 182.574219 25.683594 C 182.621094 25.609375 182.65625 25.476562 182.648438 25.382812 Z M 182.191406 25.386719 L 182.289062 25.277344 C 182.304688 25.261719 182.34375 25.246094 182.363281 25.246094 L 182.371094 25.246094 C 182.390625 25.246094 182.425781 25.253906 182.445312 25.269531 C 182.476562 25.296875 182.507812 25.359375 182.511719 25.398438 C 182.511719 25.460938 182.488281 25.558594 182.453125 25.613281 C 182.351562 25.765625 182.140625 25.984375 181.992188 26.09375 L 181.765625 26.257812 C 181.488281 26.464844 181.007812 26.753906 180.703125 26.910156 L 180.613281 26.953125 C 180.304688 27.109375 179.785156 27.316406 179.457031 27.421875 L 179.308594 27.464844 C 179.03125 27.554688 178.597656 27.691406 178.292969 27.796875 L 178.25 27.320312 L 179.410156 26.964844 C 179.75 26.863281 180.285156 26.644531 180.597656 26.472656 L 181.164062 26.171875 C 181.480469 25.996094 181.941406 25.648438 182.191406 25.386719 Z M 181.113281 27.523438 C 180.804688 27.476562 180.457031 27.421875 180.148438 27.378906 L 180.054688 27.367188 C 180.042969 27.367188 180.035156 27.363281 180.023438 27.363281 C 180.261719 27.269531 180.503906 27.164062 180.675781 27.074219 L 180.742188 27.042969 L 181.101562 27.109375 C 181.125 27.335938 181.144531 27.460938 181.148438 27.535156 Z M 181.125 27.988281 L 180.726562 28.199219 C 180.496094 28.320312 180.160156 28.46875 179.855469 28.585938 C 179.539062 28.523438 179.179688 28.429688 178.933594 28.347656 L 178.378906 28.160156 C 178.375 28.078125 178.367188 27.996094 178.363281 27.910156 C 178.667969 27.808594 179.085938 27.675781 179.355469 27.589844 L 179.5 27.546875 C 179.582031 27.523438 179.667969 27.492188 179.765625 27.457031 C 179.867188 27.472656 179.957031 27.492188 180.039062 27.5 L 180.132812 27.515625 C 180.441406 27.554688 180.785156 27.613281 181.09375 27.660156 L 181.117188 27.664062 C 181.117188 27.773438 181.117188 27.878906 181.125 27.988281 Z M 180.945312 26.933594 C 180.988281 26.910156 181.035156 26.882812 181.085938 26.855469 C 181.085938 26.890625 181.085938 26.925781 181.085938 26.960938 Z M 178.292969 27.058594 C 178.339844 27.078125 178.386719 27.09375 178.425781 27.109375 L 178.300781 27.148438 C 178.300781 27.117188 178.296875 27.089844 178.292969 27.058594 Z M 181.125 25.414062 C 181.164062 25.804688 181.128906 25.867188 181.117188 25.875 C 181.109375 25.875 181.101562 25.875 181.09375 25.875 C 180.902344 25.855469 180.695312 25.820312 180.492188 25.785156 C 180.332031 25.757812 180.164062 25.730469 180.007812 25.710938 L 179.914062 25.695312 C 179.90625 25.695312 179.894531 25.691406 179.882812 25.691406 C 180.125 25.597656 180.363281 25.496094 180.542969 25.402344 L 180.628906 25.363281 C 180.636719 25.359375 180.644531 25.351562 180.65625 25.347656 Z M 180.859375 25.234375 C 180.929688 25.191406 181.003906 25.152344 181.082031 25.105469 C 181.082031 25.15625 181.078125 25.214844 181.078125 25.265625 Z M 179.894531 25.835938 L 179.988281 25.847656 C 180.140625 25.871094 180.308594 25.898438 180.46875 25.925781 C 180.671875 25.960938 180.878906 25.996094 181.074219 26.015625 C 181.074219 26.027344 181.074219 26.042969 181.074219 26.054688 L 180.53125 26.339844 C 180.3125 26.460938 179.984375 26.601562 179.691406 26.710938 C 179.390625 26.648438 179.046875 26.558594 178.8125 26.484375 L 178.21875 26.285156 C 178.21875 26.273438 178.214844 26.257812 178.214844 26.246094 C 178.515625 26.144531 178.933594 26.007812 179.207031 25.925781 L 179.351562 25.878906 C 179.433594 25.855469 179.519531 25.824219 179.617188 25.789062 C 179.71875 25.808594 179.816406 25.824219 179.894531 25.835938 Z M 178.546875 29.007812 L 178.414062 29.050781 C 178.414062 29.019531 178.410156 28.992188 178.410156 28.960938 C 178.457031 28.976562 178.5 28.992188 178.546875 29.007812 Z M 179.558594 28.847656 C 179.910156 28.738281 180.46875 28.503906 180.796875 28.332031 L 181.390625 28.015625 C 181.71875 27.835938 182.199219 27.472656 182.460938 27.203125 L 182.570312 27.089844 C 182.582031 27.074219 182.625 27.054688 182.644531 27.054688 L 182.652344 27.054688 C 182.671875 27.050781 182.710938 27.0625 182.730469 27.078125 C 182.761719 27.105469 182.796875 27.171875 182.796875 27.210938 C 182.804688 27.277344 182.777344 27.382812 182.738281 27.433594 C 182.632812 27.59375 182.410156 27.824219 182.257812 27.9375 L 182.019531 28.109375 C 181.726562 28.320312 181.226562 28.628906 180.902344 28.789062 L 180.8125 28.835938 C 180.488281 28.996094 179.945312 29.214844 179.601562 29.324219 L 179.449219 29.371094 C 179.160156 29.460938 178.707031 29.609375 178.390625 29.710938 L 178.386719 29.214844 Z M 182.941406 27.195312 C 182.933594 27.117188 182.882812 27.015625 182.824219 26.964844 C 182.824219 26.964844 182.824219 26.964844 182.820312 26.964844 C 182.773438 26.914062 182.71875 26.890625 182.660156 26.894531 C 182.640625 26.894531 182.617188 26.902344 182.601562 26.910156 C 182.546875 26.921875 182.492188 26.953125 182.457031 26.988281 L 182.359375 27.089844 C 182.390625 26.902344 182.503906 26.757812 182.644531 26.746094 C 182.828125 26.730469 183 26.9375 183.019531 27.210938 C 183.046875 27.480469 182.914062 27.710938 182.730469 27.730469 C 182.714844 27.730469 182.703125 27.730469 182.6875 27.730469 C 182.753906 27.65625 182.8125 27.582031 182.859375 27.519531 C 182.914062 27.429688 182.949219 27.292969 182.941406 27.195312 Z M 181.238281 28.976562 C 181.261719 29.210938 181.277344 29.347656 181.289062 29.421875 C 180.9375 29.367188 180.621094 29.320312 180.324219 29.28125 L 180.226562 29.269531 C 180.21875 29.269531 180.207031 29.265625 180.195312 29.265625 C 180.445312 29.167969 180.695312 29.054688 180.878906 28.960938 L 180.953125 28.925781 Z M 181.164062 28.8125 C 181.171875 28.808594 181.175781 28.804688 181.179688 28.804688 C 181.179688 28.808594 181.179688 28.8125 181.179688 28.816406 Z M 180.207031 29.414062 L 180.304688 29.429688 C 180.597656 29.464844 180.914062 29.511719 181.257812 29.566406 C 181.273438 29.679688 181.285156 29.785156 181.304688 29.890625 L 180.894531 30.105469 C 180.664062 30.226562 180.320312 30.378906 180.011719 30.496094 C 179.6875 30.429688 179.324219 30.339844 179.074219 30.257812 L 178.425781 30.042969 C 178.421875 30.042969 178.421875 30.042969 178.417969 30.039062 C 178.417969 29.980469 178.417969 29.917969 178.417969 29.855469 C 178.738281 29.746094 179.195312 29.601562 179.484375 29.511719 L 179.636719 29.460938 C 179.71875 29.4375 179.816406 29.402344 179.910156 29.367188 C 180.023438 29.386719 180.121094 29.402344 180.207031 29.414062 Z M 178.683594 30.929688 L 178.382812 31.023438 C 178.386719 30.957031 178.390625 30.886719 178.394531 30.816406 C 178.492188 30.859375 178.59375 30.894531 178.683594 30.929688 Z M 178.324219 31.195312 L 179.710938 30.761719 C 180.070312 30.648438 180.636719 30.414062 180.96875 30.234375 L 181.570312 29.914062 C 181.910156 29.734375 182.394531 29.367188 182.660156 29.085938 L 182.765625 28.972656 C 182.785156 28.957031 182.824219 28.9375 182.847656 28.933594 L 182.855469 28.933594 C 182.875 28.929688 182.914062 28.945312 182.929688 28.960938 C 182.960938 28.988281 182.996094 29.054688 183 29.09375 C 183.007812 29.160156 182.980469 29.269531 182.941406 29.320312 C 182.832031 29.484375 182.605469 29.714844 182.449219 29.832031 L 182.214844 30.003906 C 181.917969 30.21875 181.410156 30.53125 181.082031 30.695312 L 180.988281 30.742188 C 180.664062 30.90625 180.109375 31.128906 179.757812 31.238281 L 179.660156 31.269531 C 179.394531 31.351562 179.003906 31.476562 178.675781 31.585938 C 178.53125 31.582031 178.390625 31.574219 178.261719 31.5625 Z M 183.144531 29.085938 C 183.140625 29.007812 183.085938 28.902344 183.027344 28.851562 C 183.027344 28.851562 183.023438 28.851562 183.023438 28.851562 C 182.980469 28.804688 182.921875 28.773438 182.859375 28.78125 C 182.839844 28.785156 182.820312 28.789062 182.800781 28.800781 C 182.75 28.808594 182.691406 28.839844 182.660156 28.875 L 182.558594 28.980469 C 182.589844 28.785156 182.703125 28.640625 182.851562 28.628906 C 183.039062 28.617188 183.210938 28.824219 183.234375 29.101562 C 183.257812 29.375 183.121094 29.617188 182.933594 29.628906 C 182.921875 29.628906 182.90625 29.628906 182.890625 29.628906 C 182.957031 29.554688 183.019531 29.476562 183.066406 29.410156 C 183.117188 29.328125 183.15625 29.183594 183.144531 29.085938 Z M 180.492188 31.207031 L 180.390625 31.191406 C 180.382812 31.191406 180.371094 31.1875 180.355469 31.1875 C 180.609375 31.085938 180.867188 30.976562 181.050781 30.882812 L 181.125 30.84375 L 181.550781 30.917969 L 181.6875 31.292969 C 181.621094 31.308594 181.550781 31.332031 181.480469 31.347656 C 181.148438 31.300781 180.761719 31.242188 180.492188 31.207031 Z M 181.058594 31.4375 C 180.78125 31.488281 180.476562 31.527344 180.144531 31.554688 C 179.804688 31.585938 179.464844 31.597656 179.136719 31.597656 C 179.339844 31.53125 179.542969 31.464844 179.703125 31.417969 L 179.800781 31.386719 C 179.882812 31.359375 179.976562 31.328125 180.078125 31.292969 C 180.183594 31.3125 180.285156 31.328125 180.371094 31.339844 L 180.472656 31.355469 C 180.636719 31.375 180.847656 31.40625 181.058594 31.4375 Z M 181.34375 30.730469 C 181.378906 30.710938 181.414062 30.691406 181.449219 30.671875 C 181.457031 30.699219 181.464844 30.722656 181.464844 30.75 Z M 183.28125 30.878906 C 183.265625 30.683594 183.144531 30.539062 183.011719 30.550781 C 182.980469 30.554688 182.953125 30.5625 182.925781 30.582031 L 182.921875 30.585938 C 182.886719 30.609375 182.859375 30.644531 182.835938 30.683594 C 182.796875 30.730469 182.75 30.773438 182.699219 30.820312 C 182.710938 30.59375 182.832031 30.414062 182.996094 30.398438 C 183.183594 30.382812 183.355469 30.59375 183.378906 30.871094 C 183.402344 31.148438 183.269531 31.386719 183.082031 31.398438 C 183.0625 31.398438 183.046875 31.398438 183.027344 31.398438 C 183.074219 31.339844 183.113281 31.28125 183.144531 31.21875 C 183.242188 31.164062 183.292969 31.03125 183.28125 30.878906 Z M 183.121094 30.679688 C 183.101562 30.660156 183.082031 30.648438 183.050781 30.632812 C 183.078125 30.640625 183.101562 30.652344 183.121094 30.679688 Z M 179.90625 32.296875 C 180.539062 32.242188 181.296875 32.136719 181.898438 31.980469 C 182.285156 32.722656 182.765625 33.023438 183.273438 33.292969 C 182.902344 33.335938 182.277344 33.398438 181.523438 33.460938 C 180.128906 33.578125 178.226562 33.695312 176.796875 33.632812 C 177.128906 33.390625 177.664062 32.953125 178.035156 32.316406 C 178.527344 32.363281 179.179688 32.359375 179.90625 32.296875 Z M 181.546875 33.6875 C 182.195312 33.632812 182.730469 33.582031 183.0625 33.546875 C 183.3125 33.519531 183.46875 33.503906 183.574219 33.488281 C 183.53125 33.632812 183.488281 33.78125 183.4375 33.929688 C 182.847656 35.796875 181.878906 36.992188 180.707031 37.304688 C 179.847656 37.53125 178.910156 37.257812 178.140625 36.554688 C 177.46875 35.929688 176.964844 34.960938 176.589844 33.851562 C 178.050781 33.933594 180.078125 33.808594 181.546875 33.6875 Z M 175.359375 12.351562 C 176.085938 11.4375 177.203125 10.855469 178.421875 10.753906 C 179.992188 10.621094 181.320312 11.335938 181.890625 12.613281 C 182.695312 14.425781 182.785156 15.464844 182.925781 17.046875 C 182.957031 17.425781 183.050781 18.144531 183.167969 18.941406 C 183.242188 19.527344 183.335938 20.183594 183.464844 20.9375 C 183.527344 21.335938 183.585938 21.691406 183.628906 21.980469 C 183.652344 22.230469 183.679688 22.476562 183.699219 22.714844 C 184.199219 27.945312 184.429688 30.335938 183.644531 33.230469 C 183.597656 33.207031 183.558594 33.183594 183.511719 33.160156 C 183.007812 32.894531 182.515625 32.636719 182.128906 31.917969 C 182.417969 31.828125 182.65625 31.726562 182.804688 31.609375 C 182.855469 31.582031 182.914062 31.527344 182.972656 31.464844 C 183.011719 31.476562 183.050781 31.484375 183.085938 31.480469 C 183.316406 31.460938 183.484375 31.183594 183.457031 30.867188 C 183.429688 30.550781 183.21875 30.304688 182.988281 30.328125 C 182.773438 30.34375 182.613281 30.589844 182.617188 30.886719 C 182.421875 31.027344 182.164062 31.148438 181.84375 31.25 C 181.773438 31.046875 181.710938 30.8125 181.65625 30.554688 C 181.886719 30.410156 182.128906 30.257812 182.292969 30.132812 L 182.53125 29.960938 C 182.621094 29.894531 182.726562 29.796875 182.824219 29.695312 C 182.859375 29.707031 182.894531 29.710938 182.933594 29.707031 C 183.164062 29.683594 183.332031 29.410156 183.304688 29.09375 C 183.273438 28.773438 183.066406 28.53125 182.835938 28.554688 C 182.632812 28.570312 182.476562 28.792969 182.464844 29.066406 C 182.207031 29.316406 181.804688 29.617188 181.511719 29.773438 C 181.464844 29.449219 181.425781 29.085938 181.394531 28.679688 C 181.648438 28.53125 181.910156 28.363281 182.097656 28.226562 L 182.332031 28.054688 C 182.417969 27.992188 182.523438 27.898438 182.621094 27.796875 C 182.65625 27.804688 182.695312 27.808594 182.730469 27.804688 C 182.957031 27.789062 183.117188 27.519531 183.089844 27.207031 C 183.0625 26.894531 182.859375 26.652344 182.632812 26.671875 C 182.429688 26.6875 182.277344 26.90625 182.265625 27.179688 C 182.015625 27.421875 181.628906 27.710938 181.339844 27.867188 C 181.320312 27.476562 181.308594 27.101562 181.304688 26.722656 C 181.5 26.601562 181.699219 26.472656 181.84375 26.371094 L 182.066406 26.207031 C 182.148438 26.144531 182.25 26.054688 182.339844 25.957031 C 182.375 25.964844 182.410156 25.96875 182.445312 25.964844 C 182.660156 25.949219 182.816406 25.6875 182.792969 25.390625 C 182.765625 25.089844 182.570312 24.863281 182.351562 24.878906 C 182.160156 24.898438 182.011719 25.105469 182.003906 25.367188 C 181.8125 25.550781 181.539062 25.765625 181.296875 25.921875 C 181.296875 25.617188 181.300781 25.300781 181.304688 24.964844 C 181.457031 24.871094 181.59375 24.777344 181.703125 24.699219 L 181.929688 24.535156 C 182.011719 24.472656 182.113281 24.382812 182.203125 24.285156 C 182.238281 24.296875 182.273438 24.300781 182.308594 24.296875 C 182.523438 24.277344 182.679688 24.019531 182.65625 23.71875 C 182.632812 23.421875 182.433594 23.191406 182.21875 23.210938 C 182.023438 23.226562 181.878906 23.433594 181.871094 23.695312 C 181.730469 23.832031 181.546875 23.980469 181.363281 24.113281 C 181.359375 24.078125 181.351562 24.03125 181.34375 23.972656 C 181.339844 23.945312 181.339844 23.914062 181.332031 23.882812 C 181.339844 23.632812 181.34375 23.371094 181.355469 23.09375 C 181.429688 23.046875 181.496094 22.996094 181.558594 22.957031 L 181.78125 22.792969 C 181.867188 22.730469 181.96875 22.640625 182.058594 22.542969 C 182.09375 22.554688 182.128906 22.558594 182.164062 22.554688 C 182.378906 22.535156 182.535156 22.277344 182.511719 21.976562 C 182.484375 21.679688 182.289062 21.449219 182.070312 21.464844 C 181.878906 21.484375 181.730469 21.691406 181.722656 21.953125 C 181.625 22.046875 181.507812 22.148438 181.382812 22.246094 C 181.386719 22.128906 181.390625 22.011719 181.394531 21.894531 L 181.402344 21.589844 C 181.421875 21.070312 181.679688 20.539062 181.949219 19.976562 C 182.269531 19.316406 182.601562 18.636719 182.542969 17.933594 C 182.433594 16.648438 181.910156 14.527344 181.441406 13.476562 C 181.097656 12.710938 180.554688 12.050781 179.863281 11.570312 C 179.585938 11.375 179.023438 11.289062 178.402344 11.339844 C 177.941406 11.378906 177.058594 11.527344 176.328125 12.089844 C 175.660156 12.605469 175.277344 14.050781 175.144531 15.230469 C 174.898438 17.386719 175.324219 18.78125 175.765625 19.324219 C 176.574219 20.355469 177.164062 21.390625 177.246094 21.753906 C 177.316406 22.058594 177.378906 22.359375 177.4375 22.664062 C 177.257812 22.574219 177.078125 22.46875 176.929688 22.371094 C 176.871094 22.128906 176.695312 21.957031 176.507812 21.96875 C 176.292969 21.988281 176.136719 22.246094 176.160156 22.546875 C 176.183594 22.84375 176.382812 23.074219 176.597656 23.058594 C 176.640625 23.054688 176.675781 23.042969 176.707031 23.023438 C 176.800781 23.089844 176.898438 23.148438 176.976562 23.1875 L 177.226562 23.3125 C 177.332031 23.367188 177.457031 23.421875 177.59375 23.480469 C 177.652344 23.820312 177.707031 24.15625 177.757812 24.492188 C 177.527344 24.386719 177.273438 24.246094 177.078125 24.117188 C 177.023438 23.871094 176.84375 23.699219 176.65625 23.714844 C 176.441406 23.730469 176.285156 23.992188 176.308594 24.289062 C 176.332031 24.589844 176.53125 24.816406 176.746094 24.800781 C 176.789062 24.796875 176.824219 24.785156 176.859375 24.765625 C 176.953125 24.832031 177.046875 24.894531 177.125 24.933594 L 177.371094 25.058594 C 177.507812 25.125 177.6875 25.203125 177.871094 25.277344 C 177.910156 25.589844 177.945312 25.894531 177.980469 26.195312 C 177.726562 26.089844 177.4375 25.933594 177.214844 25.785156 C 177.160156 25.542969 176.984375 25.371094 176.796875 25.382812 C 176.578125 25.402344 176.421875 25.660156 176.449219 25.960938 C 176.472656 26.257812 176.671875 26.488281 176.886719 26.46875 C 176.925781 26.464844 176.960938 26.457031 176.996094 26.433594 C 177.089844 26.5 177.183594 26.5625 177.265625 26.601562 L 177.515625 26.726562 C 177.660156 26.800781 177.859375 26.886719 178.058594 26.964844 C 178.09375 27.351562 178.121094 27.722656 178.140625 28.078125 C 177.859375 27.960938 177.511719 27.78125 177.257812 27.613281 C 177.199219 27.355469 177.015625 27.175781 176.816406 27.191406 C 176.589844 27.210938 176.425781 27.480469 176.453125 27.792969 C 176.480469 28.105469 176.683594 28.34375 176.910156 28.328125 C 176.953125 28.324219 176.992188 28.308594 177.027344 28.292969 C 177.125 28.363281 177.222656 28.425781 177.308594 28.464844 L 177.566406 28.597656 C 177.730469 28.679688 177.953125 28.777344 178.175781 28.867188 C 178.191406 29.257812 178.199219 29.617188 178.195312 29.953125 C 177.921875 29.835938 177.605469 29.667969 177.371094 29.511719 C 177.3125 29.25 177.125 29.066406 176.925781 29.085938 C 176.695312 29.105469 176.527344 29.378906 176.554688 29.695312 C 176.582031 30.015625 176.792969 30.257812 177.023438 30.238281 C 177.0625 30.234375 177.105469 30.21875 177.140625 30.203125 C 177.238281 30.273438 177.339844 30.335938 177.425781 30.378906 L 177.691406 30.511719 C 177.820312 30.578125 177.992188 30.652344 178.167969 30.726562 C 178.148438 31.058594 178.121094 31.335938 178.078125 31.554688 C 177.769531 31.523438 177.515625 31.492188 177.355469 31.445312 C 177.34375 31.441406 177.335938 31.4375 177.324219 31.433594 C 177.324219 31.414062 177.324219 31.394531 177.320312 31.371094 C 177.292969 31.054688 177.085938 30.808594 176.855469 30.832031 C 176.625 30.851562 176.457031 31.125 176.484375 31.441406 C 176.515625 31.761719 176.722656 32.003906 176.953125 31.984375 C 176.957031 31.984375 176.960938 31.984375 176.960938 31.984375 C 177.070312 32.058594 177.214844 32.136719 177.40625 32.199219 C 177.507812 32.234375 177.632812 32.261719 177.78125 32.28125 C 177.363281 32.953125 176.753906 33.382812 176.488281 33.5625 C 175.785156 31.3125 175.5625 28.578125 175.4375 26.964844 C 175.4375 26.964844 175.4375 26.964844 175.4375 26.960938 C 175.488281 26.578125 175.535156 26.253906 175.578125 25.972656 C 175.851562 24.207031 175.84375 24.136719 175.285156 20.527344 C 175.109375 19.371094 174.867188 17.789062 174.554688 15.675781 C 174.367188 14.398438 174.644531 13.246094 175.359375 12.351562 Z M 175.359375 12.351562 " fill-opacity="1" fill-rule="nonzero"/></g></svg>