<svg xmlns="http://www.w3.org/2000/svg" width="200" viewBox="0 0 150 52.5" height="70" version="1.0"><defs><clipPath id="a"><path d="M112.66 4.777h32.387V37.16H112.66zm0 0"/></clipPath><clipPath id="b"><path d="M128.855 4.777c-8.945 0-16.195 7.25-16.195 16.192 0 8.945 7.25 16.191 16.195 16.191 8.942 0 16.192-7.246 16.192-16.191 0-8.942-7.25-16.192-16.192-16.192zm0 0"/></clipPath><clipPath id="c"><path d="M115.465 15.664H129v31.563h-13.535zm0 0"/></clipPath><clipPath id="d"><path d="M129 15.664h13.2v31.563H129zm0 0"/></clipPath><clipPath id="e"><path d="M115.465 15.664H129v31.563h-13.535zm0 0"/></clipPath><clipPath id="f"><path d="M129 15.664h13.2v31.563H129zm0 0"/></clipPath></defs><path d="M11.048 40.968c-1.293 0-2.418-.262-3.375-.782a5.487 5.487 0 01-2.234-2.25c-.524-.968-.782-2.14-.782-3.515v-4.235c0-.757.203-1.351.61-1.78.414-.427.984-.641 1.703-.641.726 0 1.289.214 1.687.64.407.43.61 1.024.61 1.781v4.235c0 .664.16 1.195.484 1.594.332.406.766.609 1.297.609.531 0 .953-.203 1.266-.61.32-.398.484-.93.484-1.593V19.702c0-.77.203-1.367.61-1.797.413-.426.984-.64 1.702-.64.727 0 1.29.214 1.688.64.406.43.61 1.027.61 1.797v14.719c0 2.07-.579 3.68-1.735 4.828-1.149 1.144-2.688 1.719-4.625 1.719zm22.36-10.344h1.875v4.328H22.392c-.774 0-1.383-.191-1.828-.578-.438-.383-.656-.91-.656-1.578 0-.688.218-1.219.656-1.594.445-.383 1.054-.578 1.828-.578h5.437c.645 0 .97-.332.97-1v-9.922c0-.77.202-1.367.609-1.797.414-.426.984-.64 1.703-.64.726 0 1.289.214 1.687.64.406.43.61 1.027.61 1.797zm-8.891-1.11c-.719 0-1.281-.207-1.688-.624-.406-.415-.609-1.008-.609-1.782v-7.406c0-.77.203-1.367.61-1.797.406-.426.968-.64 1.687-.64.738 0 1.305.214 1.703.64.406.43.61 1.027.61 1.797v7.406c0 .774-.204 1.367-.61 1.782-.398.417-.965.625-1.703.625zm0 0"/><path d="M34.785 34.952v-4.328h3.234a3.206 3.206 0 01-.281-1.36c0-1.445.398-2.562 1.203-3.343.8-.79 1.863-1.188 3.187-1.188 1.446 0 2.57.418 3.375 1.25.801.836 1.204 1.93 1.204 3.282v1.359h1.984a.62.62 0 00.5-.219.74.74 0 00.203-.515v-3.735c.008-.613-.184-1.113-.578-1.5-.387-.394-.906-.594-1.563-.594h-4.125c-.773 0-1.37-.18-1.796-.546-.43-.375-.641-.883-.641-1.532 0-.664.21-1.18.64-1.547.426-.375 1.024-.562 1.797-.562h3.985c2.031 0 3.64.558 4.828 1.672 1.195 1.105 1.797 2.668 1.797 4.687v5.563c0 .586-.137 1.12-.406 1.61-.274.48-.641.859-1.11 1.14-.46.273-.98.406-1.562.406zm6.062-6.016c0 .524.125.934.375 1.235.25.304.582.453 1 .453h1.375v-1.688c0-.507-.133-.921-.39-1.234a1.2 1.2 0 00-.985-.469c-.418 0-.75.157-1 .469-.25.313-.375.727-.375 1.234zm27.521 12.032c-1.293 0-2.418-.262-3.375-.782a5.487 5.487 0 01-2.234-2.25c-.524-.968-.782-2.14-.782-3.515v-4.235c0-.757.203-1.351.61-1.78.414-.427.984-.641 1.703-.641.726 0 1.289.214 1.687.64.407.43.61 1.024.61 1.781v4.235c0 .664.16 1.195.484 1.594.332.406.766.609 1.297.609.531 0 .953-.203 1.266-.61.32-.398.484-.93.484-1.593V19.702c0-.77.203-1.367.61-1.797.413-.426.984-.64 1.702-.64.727 0 1.29.214 1.688.64.406.43.61 1.027.61 1.797v14.719c0 2.07-.579 3.68-1.735 4.828-1.149 1.144-2.688 1.719-4.625 1.719zm11.516-6.016c-.856 0-1.512-.234-1.969-.703-.46-.477-.687-1.156-.687-2.031V19.702c0-.77.203-1.367.609-1.797.414-.426.984-.64 1.703-.64.727 0 1.29.214 1.688.64.406.43.609 1.027.609 1.797v10.922h3.64v4.328zm0 0"/><path d="M84.768 34.952v-4.328h3.156a3.337 3.337 0 01-.61-.703 7.782 7.782 0 01-.562-.938 6.427 6.427 0 01-.36-.812 4.36 4.36 0 01-.109-2.344c.176-.781.55-1.488 1.125-2.125.57-.633 1.313-1.14 2.219-1.516.914-.375 1.984-.562 3.203-.562.969 0 1.89.187 2.766.562a7.414 7.414 0 012.28 1.516c.645.637 1.099 1.344 1.36 2.125.27.773.282 1.555.032 2.344-.063.21-.18.48-.344.812a8.755 8.755 0 01-.563.938c-.21.304-.422.539-.64.703h3.125v4.328zm8.062-4.516c.383 0 .766-.156 1.14-.468a4.9 4.9 0 00.985-1.125c.29-.438.484-.82.578-1.157.113-.414.055-.8-.172-1.156-.23-.363-.574-.66-1.031-.89-.45-.239-.95-.36-1.5-.36-.617 0-1.152.121-1.61.36-.449.23-.773.527-.968.89-.2.356-.242.742-.125 1.156.101.336.3.72.594 1.157.3.437.644.812 1.03 1.125.384.312.743.468 1.079.468zm0 0"/><path d="M107.578 20.983c-.637 0-1.157-.195-1.563-.593-.398-.407-.594-.938-.594-1.594 0-.633.196-1.156.594-1.563.406-.406.926-.61 1.563-.61.633 0 1.156.204 1.562.61.414.407.625.93.625 1.563 0 .656-.21 1.187-.625 1.594-.406.398-.93.593-1.562.593zm-7.438 13.969v-4.328h5.156V24.64c0-.758.204-1.348.61-1.766.414-.426.984-.64 1.703-.64.727 0 1.289.214 1.687.64.407.418.61 1.008.61 1.766v7.578c0 .875-.235 1.554-.703 2.03-.461.47-1.11.704-1.953.704zm0 0"/><g clip-path="url(#a)"><g clip-path="url(#b)"><path fill="#ff3131" d="M112.66 4.777h32.387V37.16H112.66zm0 0"/></g></g><g clip-path="url(#c)"><path fill="#fff" d="M117.348 44.742c.664 1.274 2.129 2.184 3.734 2.32.137.008.273.016.406.016 1.262 0 2.34-.504 3.004-1.422 1.094-1.508 1.938-3.21 2.434-4.922.426-1.472.594-2.933.469-4.117a78.475 78.475 0 00-.465-3.644c-.278-1.84-.278-1.84.328-5.762l.012-.078c.19-1.242.453-2.945.785-5.207.226-1.559-.118-2.969-1-4.078-.895-1.125-2.266-1.844-3.758-1.97a5.944 5.944 0 00-.453-.019c-1.774 0-3.25.895-3.922 2.399-.918 2.066-1.02 3.242-1.176 5.023-.101 1.168-.805 5.653-.879 6.004l-.105.504c-.582 2.738-1.13 5.32-1.184 7.762-.062 2.73.5 5.011 1.77 7.191zm0 0"/></g><g clip-path="url(#d)"><path fill="#fff" d="M130.617 17.844c-.883 1.105-1.226 2.515-1 4.078.336 2.293.598 4.008.793 5.262l.004.023c.606 3.922.606 3.922.328 5.762-.117.777-.277 1.84-.465 3.644-.125 1.184.043 2.645.47 4.117.495 1.711 1.339 3.415 2.433 4.922.664.918 1.746 1.422 3.004 1.422.132 0 .27-.004.406-.015 1.601-.133 3.062-1.043 3.726-2.317v-.004c1.27-2.175 1.832-4.457 1.778-7.187-.055-2.446-.602-5.028-1.184-7.766l-.105-.504c-.075-.355-.778-4.843-.88-6.004-.155-1.78-.257-2.957-1.175-5.023-.727-1.629-2.402-2.54-4.375-2.379-1.496.129-2.863.844-3.758 1.969zm0 0"/></g><g clip-path="url(#e)"><path d="M125.82 26.902a.263.263 0 00-.093-.015c-.204-.02-.422.156-.528.414-.117.304-.035.625.184.71.027.012.058.02.09.024.207.016.425-.16.527-.418a.687.687 0 00.04-.43c-.032-.144-.11-.242-.22-.285zm.11.68c-.094.227-.278.379-.45.367a.409.409 0 01-.066-.015c-.18-.075-.242-.344-.137-.606.086-.226.278-.383.446-.367a.454.454 0 01.07.016.297.297 0 01.172.222.69.69 0 01-.035.383zm-.2-.46a.104.104 0 00-.046-.013c-.121-.011-.25.094-.313.254a.437.437 0 00-.027.25c.02.086.066.145.129.172a.12.12 0 00.05.012c.122.012.25-.094.309-.258.074-.18.031-.367-.102-.418zm.028.394c-.051.125-.149.21-.23.203-.012 0-.02 0-.032-.004-.039-.016-.066-.059-.078-.113a.382.382 0 01.023-.215c.051-.14.172-.23.258-.2.09.043.117.188.059.329zm-6.84-.036c.027.004.059 0 .09 0 .23-.05.363-.351.3-.671-.058-.274-.25-.485-.453-.5-.03-.004-.058 0-.09.003a.382.382 0 00-.265.239.73.73 0 00-.035.433c.062.27.25.48.453.496zm-.344-.898c.047-.105.121-.172.211-.191a.184.184 0 01.067-.004c.171.015.332.195.378.433.06.278-.046.54-.234.575-.023.003-.047.007-.066.003-.172-.015-.332-.195-.38-.433a.601.601 0 01.024-.383zm.336.664h.05c.071-.016.122-.066.157-.148a.442.442 0 00.016-.258c-.035-.172-.145-.297-.266-.305-.02 0-.035 0-.055.004-.132.031-.21.207-.167.402.035.176.144.301.265.305zm-.082-.625c.094-.02.195.094.227.238a.472.472 0 01-.012.211c-.023.055-.059.09-.098.098-.007.004-.015.004-.027.004-.086-.008-.168-.11-.195-.242-.032-.149.02-.29.105-.309zm1.461 1.035c.684.309 1.367.496 2.027.547 1.004.086 1.7-.152 1.95-.258.07-.03.117-.086.12-.144l.012-.156.07-.88.012-.156c.004-.023-.011-.043-.035-.05-.011-.008-.027-.012-.054 0-.61.214-1.262.3-1.938.242a5.663 5.663 0 01-2.172-.649c-.011-.007-.023-.007-.031-.007h-.027c-.028.007-.04.023-.04.043l-.003.128a.035.035 0 00-.012.028l-.031 1.136c.008.07.058.137.152.176zm-.02-1.426c.32.176 1.137.563 2.184.653a4.715 4.715 0 001.95-.238l-.005.066c-.003 0-.011.004-.015.004a4.66 4.66 0 01-1.938.242 5.578 5.578 0 01-2.172-.652c-.003 0-.003-.004-.007-.004zm-.015-.05l-.004.043zm-.016.156l-.004.043zm.02.05a5.74 5.74 0 002.183.65 4.651 4.651 0 001.95-.24l-.07.845-.012.156c-.004.031-.032.055-.075.074-.246.106-.918.336-1.914.258a6.241 6.241 0 01-2-.54c-.054-.026-.093-.066-.09-.105zm-2.953 18.376c.668 1.289 2.148 2.21 3.773 2.343 1.45.122 2.711-.394 3.453-1.425a16.265 16.265 0 002.438-4.938c.43-1.48.597-2.945.472-4.137-.191-1.789-.351-2.859-.468-3.644-.274-1.832-.274-1.832.332-5.746.191-1.258.457-2.977.793-5.285.234-1.57-.121-2.996-1.012-4.114-.898-1.136-2.281-1.855-3.79-1.98-1.991-.168-3.687.754-4.425 2.402-.922 2.075-1.023 3.254-1.18 5.04-.101 1.167-.8 5.644-.879 5.995l-.105.504c-.578 2.743-1.129 5.328-1.18 7.774-.062 2.738.508 5.031 1.778 7.21zm.261-16.059c.051-.308.114-.703.18-1.133.145-.828.246-1.543.324-2.175a47.2 47.2 0 00.266-2.067c.148-1.719.25-2.855 1.125-4.828.621-1.39 2.07-2.164 3.777-2.023 1.332.109 2.547.746 3.34 1.742.774.972 1.078 2.226.875 3.617-.34 2.305-.605 4.02-.797 5.285-.605 3.93-.617 4.008-.332 5.942.047.304.102.656.156 1.074v.004c-.144 1.757-.386 4.738-1.148 7.187-.285-.195-.95-.668-1.402-1.394.152-.024.293-.055.402-.094.215-.07.367-.149.488-.235h.008c.25.024.48-.246.508-.59.031-.347-.148-.644-.398-.663-.25-.024-.481.246-.508.59-.004.023-.004.046-.004.066l-.035.012c-.176.05-.446.093-.79.117a7.24 7.24 0 01-.097-.899 9.17 9.17 0 00.523-.234l.29-.145c.09-.047.199-.113.308-.191a.303.303 0 00.129.035c.25.024.476-.246.508-.59.031-.347-.153-.644-.403-.664-.218-.02-.418.18-.488.465a5.734 5.734 0 01-.894.48 23.28 23.28 0 01.02-1.18c.241-.097.483-.202.663-.296l.285-.14a2.46 2.46 0 00.301-.192.309.309 0 00.129.039c.246.02.469-.242.5-.582.031-.34-.148-.637-.395-.656-.214-.02-.41.18-.48.457a5.784 5.784 0 01-.96.508c.022-.391.05-.793.089-1.211.219-.086.433-.18.59-.258l.273-.137c.086-.043.192-.11.293-.184a.31.31 0 00.121.04c.235.02.45-.23.477-.555.027-.328-.145-.61-.38-.629-.202-.02-.398.168-.456.437-.238.16-.559.329-.836.446.035-.328.078-.66.121-.996.203-.082.39-.168.543-.242l.27-.137c.085-.043.187-.11.293-.18a.397.397 0 00.12.035c.235.02.45-.23.477-.554.028-.325-.144-.61-.379-.63-.207-.019-.398.173-.46.442a6.2 6.2 0 01-.743.406c.059-.363.117-.734.184-1.101.148-.063.285-.125.398-.18l.274-.137c.086-.043.187-.109.289-.18a.469.469 0 00.12.036c.235.02.454-.23.481-.555.024-.324-.144-.61-.379-.629-.207-.02-.398.172-.46.442-.16.105-.36.218-.555.316.062-.328.136-.664.207-.992.09-.399.734-1.527 1.613-2.645.48-.59.95-2.11.68-4.46-.149-1.286-.567-2.86-1.293-3.419-.797-.613-1.758-.777-2.258-.816-.68-.059-1.29.035-1.59.25a4.982 4.982 0 00-1.723 2.074c-.507 1.145-1.078 3.457-1.195 4.852-.066.77.297 1.512.645 2.23.293.61.574 1.188.593 1.754l.012.332.012.383a3.922 3.922 0 01-.371-.32c-.012-.282-.172-.508-.38-.528-.234-.02-.452.23-.476.555-.027.324.145.61.38.629.034.004.073 0 .112-.012.102.106.207.203.297.274l.243.175c.066.051.14.098.222.153.012.297.02.586.024.86 0 .034-.008.066-.012.097-.008.062-.016.113-.02.152a5.246 5.246 0 01-.554-.457c-.012-.281-.168-.508-.38-.527-.234-.02-.448.23-.476.554-.027.325.145.61.38.63.038.003.073 0 .112-.012.102.105.207.203.301.273l.242.176c.121.086.274.191.43.293.008.363.012.707.012 1.039a5.83 5.83 0 01-.774-.606c-.011-.285-.168-.511-.379-.527-.234-.02-.449.23-.476.555-.028.324.144.61.379.629.039.004.078 0 .113-.012.098.105.211.203.3.27l.247.18c.156.112.371.253.586.386-.008.41-.024.82-.04 1.246a5.138 5.138 0 01-1.007-.754c-.012-.293-.176-.531-.398-.55-.247-.02-.47.242-.5.581-.032.34.148.637.394.657a.3.3 0 00.117-.012c.106.11.219.215.313.281l.258.188c.203.148.488.332.765.496-.035.437-.078.836-.129 1.191a5.648 5.648 0 01-1.039-.773c-.011-.297-.176-.54-.402-.559-.25-.023-.48.246-.508.59-.031.348.148.644.398.664a.31.31 0 00.122-.012c.109.114.226.223.32.29l.262.187a9 9 0 00.695.457 7.825 7.825 0 01-.203.762 3.09 3.09 0 01-.844-.399c.008-.32-.168-.59-.406-.605-.25-.024-.477.242-.508.59-.031.347.152.644.402.664.04.004.082 0 .125-.016.063.07.13.125.18.156.16.13.422.239.738.336-.422.781-.957 1.067-1.507 1.356a2.44 2.44 0 00-.141.074c-.86-3.156-.61-5.758-.063-11.453.032-.266.059-.532.082-.809zm.383 9.695c-.015.164.047.309.145.368.039.07.086.136.129.195-.02.004-.04.004-.055.004-.207-.016-.352-.278-.328-.574.027-.301.215-.532.418-.516.176.016.308.21.324.457a1.367 1.367 0 01-.152-.148.272.272 0 00-.09-.11l-.004-.004h-.004a.191.191 0 00-.09-.03c-.148-.013-.277.144-.293.358zm.246-.27a1.23 1.23 0 00-.074.048.196.196 0 01.074-.047zm-.035.298a.178.178 0 01.121-.156c.57.683 1.973.937 3.063 1.027 1.281.105 2.578.023 3.09-.121.226-.063.359-.23.453-.36.039.055.09.16.078.286-.02.242-.262.441-.684.582-.469.152-1.484.191-2.644.093-1.457-.12-2.696-.414-3.078-.722l-.008-.008c-.125-.067-.41-.402-.39-.621zm.024-1.63c.05.071.117.157.191.24h-.047c-.203-.02-.348-.278-.324-.575.027-.3.21-.531.418-.516.156.016.277.176.316.383l-.11-.113a.318.318 0 00-.155-.082.384.384 0 00-.063-.02.233.233 0 00-.18.075h-.003a.44.44 0 00-.13.257.59.59 0 00.087.352zm.136-.089a.463.463 0 01-.062-.246.298.298 0 01.074-.148.14.14 0 01.086-.028h.008a.199.199 0 01.086.043l.117.125c.289.3.816.703 1.183.899l.657.347c.363.196.976.453 1.37.578l1.509.473.074.406c-.145.012-.297.016-.453.024-.36-.117-.781-.254-1.07-.344l-.106-.035a11.084 11.084 0 01-1.344-.54l-.097-.05c-.356-.18-.91-.52-1.235-.754l-.262-.187a3.032 3.032 0 01-.535-.563zm.09-1.977c.047.075.113.153.184.23-.016 0-.031.005-.043 0-.203-.01-.348-.269-.32-.565.027-.293.207-.52.41-.504.156.007.277.168.312.375l-.105-.114a.353.353 0 00-.157-.082.236.236 0 00-.062-.02.217.217 0 00-.176.079h-.004a.43.43 0 00-.129.25.615.615 0 00.09.351zm.133-.09a.48.48 0 01-.066-.242.29.29 0 01.078-.148.144.144 0 01.082-.023h.008a.2.2 0 01.082.039l.117.12a5.39 5.39 0 001.168.887l.648.344c.356.188.961.442 1.348.563l1.281.402-.008.54c-.347-.118-.84-.274-1.152-.372l-.168-.05a10.1 10.1 0 01-1.316-.536l-.098-.047a11.02 11.02 0 01-1.219-.742l-.258-.184a2.713 2.713 0 01-.527-.55zm.18-1.902c.047.07.105.145.18.223h-.044c-.191-.016-.328-.258-.304-.54.02-.284.199-.5.386-.483.149.011.266.164.301.359l-.101-.11a.262.262 0 00-.149-.078.293.293 0 00-.062-.02.21.21 0 00-.164.071s-.004 0-.004.004c-.004.004-.008.008-.008.012l-.008.008a.361.361 0 00-.105.226.564.564 0 00.082.328zm.125-.082a.455.455 0 01-.059-.234.242.242 0 01.07-.14.145.145 0 01.079-.028h.007a.2.2 0 01.082.039l.11.117c.27.285.77.664 1.113.848l.617.328c.34.184.922.426 1.293.539l1.266.383-.043.52c-.328-.11-.809-.266-1.11-.36l-.16-.05c-.36-.114-.925-.34-1.261-.509l-.094-.047a10.78 10.78 0 01-1.164-.71l-.246-.176a2.529 2.529 0 01-.5-.52zm.027-1.734c.047.066.105.14.18.223h-.043c-.196-.016-.332-.262-.309-.543.024-.282.203-.5.39-.485.153.012.266.164.302.36l-.102-.11a.34.34 0 00-.148-.078.293.293 0 00-.063-.02.21.21 0 00-.164.07h-.004c-.004.005-.008.009-.008.013l-.008.007a.37.37 0 00-.105.227.56.56 0 00.082.336zm.129-.086a.44.44 0 01-.063-.234.26.26 0 01.075-.141.167.167 0 01.078-.023h.008a.183.183 0 01.082.035l.109.117a4.91 4.91 0 001.113.848l.617.328c.34.183.918.425 1.293.539l1.262.386-.039.516c-.332-.11-.809-.266-1.11-.36l-.16-.046a9.804 9.804 0 01-1.261-.512l-.094-.047a9.862 9.862 0 01-1.164-.71l-.246-.177a2.34 2.34 0 01-.5-.52zm.031-1.813c.043.067.106.141.176.223h-.04c-.194-.016-.331-.262-.308-.543.024-.281.2-.5.39-.484.15.011.267.164.302.363l-.106-.11a.276.276 0 00-.144-.077.31.31 0 00-.063-.02.225.225 0 00-.168.07h-.004c-.004.004-.007.008-.007.012l-.008.008a.394.394 0 00-.106.226.573.573 0 00.086.332zm.13-.09a.407.407 0 01-.063-.234.248.248 0 01.074-.14c.011-.012.054-.024.078-.024h.008c.023.004.062.02.078.035l.11.117c.269.286.769.668 1.112.848l.622.328c.34.184.918.43 1.285.547l1.379.445-.067.489c-.308-.102-.879-.297-1.195-.39l-.156-.048a9.581 9.581 0 01-1.262-.511l-.098-.047a9.814 9.814 0 01-1.16-.711l-.242-.176a2.48 2.48 0 01-.504-.527zm2.323-3.23l.035.016c.473.187 1.52.254 2.016.183.066-.011.16-.043.281-.086.36-.125.953-.332 1.34-.105.164.098.281.27.344.508-.684.957-1.152 1.816-1.234 2.183-.086.387-.172.782-.247 1.176a2.632 2.632 0 01-.238.09l-.664.223a9.048 9.048 0 01-.965.25 9.715 9.715 0 01-.902-.403l-.617-.332a4.47 4.47 0 01-.371-.23c-.008-.184-.012-.38-.02-.578l-.012-.332c-.02-.621-.324-1.25-.62-1.852-.126-.258-.25-.52-.356-.781.472-.61 1.015-.403 2.23.07zm4.004 3.281a.29.29 0 00-.176-.093h-.007a.323.323 0 00-.196.054l-.129.098c-.007.004-.015.012-.02.016.071-.176.208-.297.352-.282.192.012.329.258.305.54-.023.285-.2.5-.39.484-.02 0-.036-.008-.055-.012a2 2 0 00.261-.23.581.581 0 00.137-.313.403.403 0 00-.082-.262zm-.414.176l.129-.098a.186.186 0 01.09-.027h.008c.02.004.058.024.07.04a.26.26 0 01.047.152.504.504 0 01-.098.218 2.56 2.56 0 01-.586.434l-.273.137a9.44 9.44 0 01-1.203.488l-.742-.238c-.032-.012-.063-.02-.09-.032.265-.058.543-.136.746-.199l.66-.223c.371-.125.93-.417 1.242-.652zm.254 1.723a.29.29 0 00-.176-.094h-.008a.323.323 0 00-.195.055l-.129.097-.015.016c.066-.176.203-.297.347-.281.192.012.328.258.305.539-.02.285-.2.5-.39.484-.02 0-.04-.008-.06-.012.102-.074.196-.16.262-.23a.605.605 0 00.141-.309.4.4 0 00-.082-.265zm-.41.18l.129-.098a.172.172 0 01.086-.027h.008a.138.138 0 01.07.039.26.26 0 01.047.152.463.463 0 01-.098.219 2.56 2.56 0 01-.586.433l-.266.137c-.312.156-.816.36-1.171.477l-.778-.239a.62.62 0 01-.078-.027c.266-.059.531-.133.73-.195l.665-.223a5.23 5.23 0 001.242-.648zm-1.348 1.34l-.011.124-.176-.054c.058-.02.125-.047.187-.07zm-1.566-.368a10.592 10.592 0 01-.914-.398l-.617-.332c-.043-.024-.098-.051-.153-.086v-.028c.418-.05 1.07-.14 1.367-.175l.106-.016c.09-.012.187-.031.297-.05.101.038.203.073.289.097l.16.05c.3.094.848.278 1.156.383-.004.024-.004.043-.008.067l-.062.023-.664.223a8.73 8.73 0 01-.957.242zm1.86-1.586c-.016.078-.028.156-.044.238l-.316-.105c.113-.035.234-.086.36-.133zm-3.173-.129l-.39.04c-.004-.094-.004-.184-.008-.282.133.086.27.164.398.242zm-.492.575c.012-.09.031-.211.047-.372l.684-.074c.02.012.046.028.07.04l.094.046c.191.094.457.211.715.313-.012 0-.024.004-.036.004l-.101.015c-.332.047-1.094.149-1.492.192a.88.88 0 01.02-.164zm4.98 1.808a.305.305 0 00-.18-.098h-.007a.297.297 0 00-.187.06l-.13.097a.105.105 0 00-.019.015c.067-.18.203-.3.348-.285.191.016.328.262.308.543-.023.281-.203.5-.39.485-.02 0-.04-.008-.059-.012.098-.078.195-.16.262-.23a.614.614 0 00.14-.313.47.47 0 00-.085-.262zm-.417.18l.129-.098a.172.172 0 01.085-.027h.008c.024 0 .063.023.075.039a.275.275 0 01.042.148.46.46 0 01-.097.223c-.137.14-.406.344-.582.434l-.274.136c-.312.153-.812.36-1.172.477l-.777-.238c-.023-.008-.05-.016-.078-.028.266-.058.535-.133.73-.195l.665-.223a5.04 5.04 0 001.246-.648zm.398 1.808a.277.277 0 00-.187-.097h-.008a.328.328 0 00-.2.054l-.136.102c-.008.004-.016.012-.024.016.075-.184.211-.309.364-.297.203.015.347.27.324.566-.027.293-.211.52-.41.508-.02 0-.04-.008-.059-.012.11-.082.207-.168.277-.238a.598.598 0 00.145-.328.447.447 0 00-.086-.274zm-.434.188l.137-.102a.186.186 0 01.09-.027h.008a.155.155 0 01.078.043c.031.035.05.113.047.16a.472.472 0 01-.102.23c-.144.149-.422.36-.61.454l-.284.144c-.328.16-.864.38-1.242.504l-.793-.25a1.195 1.195 0 01-.094-.027 9.16 9.16 0 00.773-.211l.696-.23a5.655 5.655 0 001.296-.688zm-1.476 1.426c0 .035-.004.066-.004.097l-.145-.043c.051-.015.098-.035.149-.054zm-1.57-.407a9.327 9.327 0 01-.95-.421l-.433-.23c.008-.118.008-.235.011-.349l.024-.003c.336-.051.715-.114 1.047-.16l.101-.012c.09-.012.192-.032.301-.051.102.039.2.07.285.098l.16.05c.297.09.75.239 1.082.348-.007.09-.011.18-.015.27l-.606.207c-.27.085-.664.183-1.007.253zm1.695-1.66c-.004.032-.004.063-.008.094l-.137-.043c.047-.016.094-.035.145-.05zm-2.567-1.867l.028.016.097.047c.188.093.454.21.715.312-.011 0-.023.004-.035.004l-.101.016c-.172.023-.352.054-.528.082a7.816 7.816 0 01-.656.097h-.023c-.012-.008-.051-.078-.008-.5zm-.468-.262c.086.047.164.094.242.137l-.238.035c0-.054-.004-.117-.004-.172zm.008.989c.21-.028.441-.063.66-.098.175-.031.355-.059.523-.082l.102-.016c.09-.011.187-.03.3-.05.102.039.2.074.286.097l.16.051c.297.09.754.238 1.078.348 0 .015-.004.03-.004.047l-.644.214c-.254.082-.626.176-.961.246a9.913 9.913 0 01-.915-.402l-.59-.312c.005-.016.005-.032.005-.043zm.14 1.004l-.156.027c0-.04.004-.078.004-.117.055.031.101.062.152.09zm-.172.183l.39-.07.075.035c.188.094.453.21.715.313-.012 0-.023.003-.035.003l-.102.016c-.332.043-.71.105-1.05.156l-.043.008c.007-.074.027-.215.05-.46zm4.723 2.469a.294.294 0 00-.191-.098h-.008a.35.35 0 00-.203.059l-.137.101c-.008.004-.016.012-.024.016.075-.191.215-.316.368-.305.207.02.351.278.328.575-.028.3-.215.53-.418.515l-.063-.012c.11-.082.211-.164.282-.242a.587.587 0 00.148-.332.422.422 0 00-.082-.277zm-.441.191l.136-.101a.16.16 0 01.09-.028h.008c.023.004.066.024.078.043.031.032.05.114.047.157a.43.43 0 01-.106.234c-.148.156-.43.363-.62.46l-.29.145c-.332.168-.879.391-1.257.516l-.81-.254a.607.607 0 01-.089-.031c.281-.063.57-.14.781-.211l.707-.234a5.632 5.632 0 001.325-.696zm-1.317 1.606l-.332-.102c.106-.039.211-.074.317-.117.003.074.011.152.015.219zm-2.8-2.281l.078.042c.203.102.476.22.75.329-.012 0-.024.004-.036.004l-.105.015c-.32.043-.668.09-1.05.153.01-.079.03-.227.058-.485zm-.25-.122v-.007c.007.004.011.007.019.007zm-.083.82c.375-.062.723-.109 1.035-.152l.11-.015c.094-.012.2-.031.308-.051.11.04.207.078.301.105l.164.051c.32.098.817.258 1.16.375v.2s-.003 0-.007.003l-.703.235c-.27.09-.668.195-1.02.261a9.985 9.985 0 01-.96-.425l-.446-.235c.027-.113.043-.23.058-.351zm2.309 2.212c-.356 0-.73-.016-1.098-.047a8.961 8.961 0 01-.996-.13c.235-.03.461-.066.64-.089l.11-.016c.094-.011.203-.027.32-.05.11.035.211.074.301.101l.106.035c.172.051.39.125.617.196zm-2.402-.946l-.133.024a.72.72 0 00.015-.09l.118.066zm.234.125l.082.043c.203.102.48.223.758.332-.012 0-.028.004-.04.004l-.109.016c-.293.035-.71.101-1.074.152-.078-.02-.152-.035-.226-.058l.148-.41zm4.625.239c-.125-.012-.238.105-.281.273-.04.035-.075.07-.125.098v-.024c.027-.3.21-.53.418-.515.203.02.347.277.324.574-.024.254-.16.46-.324.504a.624.624 0 00.203-.434.292.292 0 00.012-.078c.023-.215-.079-.387-.227-.398zm-3.293 1.343c.793.063 1.5.07 2.035.016.403.695.98 1.172 1.348 1.434-1.559.07-3.63-.059-5.149-.188-.82-.07-1.504-.14-1.906-.183.55-.293 1.082-.618 1.496-1.43.66.18 1.489.293 2.176.351zm-3.441 1.36c.367.039.949.094 1.652.156 1.602.133 3.809.27 5.398.176-.41 1.21-.949 2.265-1.687 2.941-.84.77-1.86 1.07-2.797.82-1.273-.34-2.328-1.644-2.973-3.671-.054-.164-.101-.328-.148-.485.113.016.285.032.555.063zm-2.012-3.739c.043-2.023.445-4.175.914-6.44-.469 5.026-.574 7.433.457 10.671.668 2.113 1.789 3.48 3.144 3.84 1.024.27 2.13-.047 3.032-.875.789-.723 1.36-1.856 1.785-3.145l.047-.144c.64-2.02.922-4.39 1.086-6.168.05.402.101.855.156 1.367.117 1.11-.043 2.492-.45 3.89a15.545 15.545 0 01-2.34 4.739c-.608.84-1.655 1.262-2.87 1.164-1.41-.117-2.688-.906-3.254-2.004l-.008-.012c-1.21-2.078-1.754-4.261-1.7-6.883zm0 0"/></g><g clip-path="url(#f)"><path d="M132.191 28.031a.437.437 0 00.09-.023c.219-.086.305-.406.184-.711-.106-.258-.324-.434-.528-.414-.03.004-.062.008-.093.015-.11.043-.188.141-.219.282a.689.689 0 00.04.43c.1.261.32.437.526.421zm-.488-.832c.024-.113.086-.191.172-.222a.222.222 0 01.07-.016c.168-.016.356.14.446.367.101.266.043.535-.137.606-.024.007-.043.015-.066.015-.172.012-.356-.14-.45-.367a.656.656 0 01-.035-.383zm.442.602a.1.1 0 00.05-.012c.063-.027.11-.086.13-.172a.446.446 0 00-.028-.254c-.067-.156-.192-.261-.313-.25a.093.093 0 00-.047.012c-.128.047-.175.238-.101.422.059.16.187.265.309.254zm-.184-.606c.086-.035.203.059.254.2a.37.37 0 01.023.21c-.011.06-.039.102-.078.114a.072.072 0 01-.027.008c-.082.007-.18-.082-.23-.204-.055-.148-.028-.293.058-.328zm6.848-.886c-.204.015-.395.226-.45.5-.07.32.067.62.297.671a.346.346 0 00.09 0c.207-.015.395-.226.453-.496a.734.734 0 00-.035-.433.382.382 0 00-.266-.238c-.03-.004-.058-.008-.09-.004zm.28.277a.66.66 0 01.028.383c-.047.238-.207.422-.379.433a.196.196 0 01-.066-.004c-.188-.035-.297-.296-.238-.574.05-.238.207-.422.379-.433a.185.185 0 01.066.004c.094.02.164.085.21.19zm-.292-.047c-.121.012-.23.137-.266.305a.44.44 0 00.016.258c.031.078.086.132.156.144.016.004.031.004.05.004.122-.008.231-.133.267-.3.042-.196-.036-.376-.168-.403-.016-.008-.036-.008-.055-.008zm.144.39c-.027.13-.109.235-.195.243-.012 0-.016 0-.027-.004-.043-.008-.078-.043-.102-.098a.424.424 0 01-.008-.21c.028-.15.13-.258.223-.239.09.024.145.16.11.309zm-3.59 1.274a6.14 6.14 0 002.024-.547c.09-.043.145-.105.14-.176l-.03-1.14a.056.056 0 00-.008-.027l-.004-.13c0-.019-.016-.035-.043-.042-.008-.004-.016-.004-.028 0-.007 0-.02.004-.035.007-.3.165-1.117.563-2.172.649a4.598 4.598 0 01-1.937-.242c-.028-.008-.04-.004-.055 0-.023.011-.039.03-.035.05l.012.157.074.879.012.156c.004.058.05.113.12.144.266.11.958.348 1.966.262zm2.079-1.828l-.004-.043zm-.012-.156c-.004 0-.004 0 0 0l-.004-.043zm-4.156.426c.613.214 1.27.293 1.953.238a5.732 5.732 0 002.183-.653l.004.067c-.004 0-.004 0-.007.004a5.562 5.562 0 01-2.172.652 4.66 4.66 0 01-1.938-.242c-.004 0-.012-.004-.015-.004zm.093 1.148l-.011-.156-.07-.844a4.65 4.65 0 001.953.238 5.747 5.747 0 002.183-.648l.031 1.097c0 .032-.035.075-.09.102a6.046 6.046 0 01-2 .54c-.992.081-1.667-.153-1.913-.259-.051-.015-.079-.039-.083-.07zm-2.992-.578c.602 3.914.602 3.914.332 5.746-.117.785-.28 1.855-.468 3.644-.125 1.192.043 2.66.472 4.137a16.175 16.175 0 002.438 4.938c.742 1.03 2 1.547 3.449 1.425 1.625-.136 3.105-1.054 3.773-2.343 1.274-2.18 1.84-4.473 1.782-7.211-.051-2.45-.602-5.035-1.18-7.778l-.106-.503c-.078-.352-.777-4.832-.878-5.997-.157-1.785-.258-2.964-1.18-5.039-.738-1.648-2.434-2.57-4.426-2.402-1.508.125-2.89.848-3.789 1.98-.89 1.122-1.242 2.543-1.012 4.114.332 2.308.602 4.027.793 5.289zm11.13 10.348c.054 2.617-.49 4.8-1.7 6.878l-.008.016c-.566 1.098-1.844 1.883-3.254 2-1.215.102-2.261-.324-2.87-1.164a15.458 15.458 0 01-2.34-4.738c-.407-1.399-.567-2.778-.45-3.89.055-.517.106-.966.156-1.368.164 1.777.446 4.148 1.086 6.168l.051.144c.426 1.29 1 2.422 1.785 3.145.899.828 2.004 1.144 3.031.875 1.356-.352 2.473-1.719 3.145-3.832 1.031-3.238.926-5.649.453-10.672.473 2.262.871 4.414.914 6.438zm-8.977 1.433l.011.082a.631.631 0 00.203.434c-.164-.043-.3-.25-.324-.504-.027-.297.121-.559.324-.574.208-.02.391.21.418.515v.024c-.046-.028-.085-.063-.125-.098-.043-.168-.156-.285-.28-.273-.141.007-.243.18-.227.394zm.18.106a.436.436 0 01.077-.286c.094.125.227.297.454.36.511.144 1.808.226 3.09.12 1.09-.089 2.495-.343 3.062-1.026.078.035.113.09.121.156.02.222-.262.554-.39.625l-.008.008c-.383.308-1.622.597-3.079.722-1.16.098-2.175.059-2.648-.093-.418-.145-.656-.344-.68-.586zm-.16-2.07a.628.628 0 00.148.331c.07.078.168.164.28.242a.162.162 0 01-.062.012c-.203.016-.39-.21-.418-.515-.023-.297.121-.559.328-.575.153-.011.293.114.368.305-.008-.004-.016-.012-.024-.016l-.136-.101a.311.311 0 00-.204-.059h-.007a.313.313 0 00-.192.098.471.471 0 00-.082.277zm.269.218a.46.46 0 01-.106-.234.273.273 0 01.047-.157.152.152 0 01.082-.043h.008a.152.152 0 01.09.028l.137.101c.332.25.921.559 1.316.692l.707.234c.21.07.5.149.781.211-.027.012-.058.02-.09.031l-.804.254a10.49 10.49 0 01-1.262-.515l-.29-.145a2.531 2.531 0 01-.616-.457zm-.387-2.29c.008.11.07.25.148.33.07.073.168.155.274.237a.157.157 0 01-.059.012c-.199.016-.386-.215-.41-.508-.027-.297.117-.547.32-.566.153-.012.29.11.364.297-.008-.004-.016-.012-.024-.016l-.136-.101a.304.304 0 00-.2-.055h-.007a.27.27 0 00-.188.097.46.46 0 00-.082.274zm.262.22a.439.439 0 01-.102-.23.265.265 0 01.047-.16.155.155 0 01.078-.044h.008a.16.16 0 01.09.027l.137.102c.324.246.91.555 1.296.68l.696.234c.207.066.492.145.773.207-.031.012-.062.02-.094.031l-.793.246c-.375-.125-.914-.34-1.242-.503l-.285-.145a2.519 2.519 0 01-.61-.445zm-.278-2.22a.559.559 0 00.141.313c.066.07.164.149.262.23a.157.157 0 01-.059.013c-.191.015-.367-.203-.39-.485-.02-.285.113-.527.308-.543.145-.011.281.106.348.285a.085.085 0 01-.02-.015l-.129-.098a.297.297 0 00-.187-.058h-.008a.267.267 0 00-.18.097.385.385 0 00-.086.262zm.25.212a.426.426 0 01-.097-.223.275.275 0 01.043-.148c.015-.016.054-.04.074-.04h.008c.023 0 .066.012.086.028l.129.098c.312.234.87.527 1.242.648l.664.227c.195.062.465.133.73.195-.027.008-.054.02-.078.027l-.777.239c-.36-.118-.86-.325-1.172-.477l-.274-.137a3.126 3.126 0 01-.578-.437zm-.402-2.027c.008.101.07.238.14.308s.165.152.262.23a.157.157 0 01-.058.012c-.192.016-.367-.199-.39-.484-.024-.285.112-.523.304-.54.144-.01.277.106.347.282-.007-.004-.011-.012-.015-.015l-.13-.098a.336.336 0 00-.194-.055h-.008a.254.254 0 00-.176.094.413.413 0 00-.082.266zm.25.207a.504.504 0 01-.098-.22.26.26 0 01.047-.152c.016-.015.051-.039.07-.039h.008a.14.14 0 01.086.028l.13.097c.316.235.866.528 1.241.653l.664.222c.2.063.465.137.73.196-.026.008-.05.02-.077.027l-.778.238a9.902 9.902 0 01-1.171-.476l-.27-.137a2.875 2.875 0 01-.582-.437zm-.41-2.11c.008.102.07.238.14.313.07.07.165.152.262.23a.138.138 0 01-.054.012c-.196.015-.368-.2-.395-.485-.023-.285.113-.523.305-.539.144-.011.28.106.351.282a.085.085 0 01-.02-.016l-.128-.098a.336.336 0 00-.196-.054h-.007a.262.262 0 00-.176.093.418.418 0 00-.082.262zm.254.207a.47.47 0 01-.102-.219.26.26 0 01.047-.152c.016-.015.055-.039.07-.039h.008a.152.152 0 01.09.027l.129.098a5.18 5.18 0 001.242.652l.66.223c.203.066.48.14.746.2a.818.818 0 01-.09.03l-.742.239a10.107 10.107 0 01-1.203-.488l-.273-.137c-.18-.09-.45-.29-.582-.434zm.16-3.738c.387-.227.98-.02 1.34.105.12.04.219.075.281.086.492.07 1.543 0 2.016-.183l.035-.016c1.215-.473 1.758-.68 2.23-.074-.105.262-.23.523-.355.781-.297.606-.598 1.235-.621 1.852l-.012.332c-.008.199-.012.394-.02.578-.132.09-.257.172-.37.23l-.618.332a9.714 9.714 0 01-.902.403 8.005 8.005 0 01-.965-.25l-.664-.223a3.953 3.953 0 01-.238-.09 42.28 42.28 0 00-.246-1.176c-.083-.363-.551-1.226-1.235-2.183a.823.823 0 01.344-.504zm6.215 2.977a.454.454 0 00-.11-.227c0-.004 0-.004-.004-.008-.003-.004-.007-.008-.007-.012h-.004a.23.23 0 00-.168-.07.118.118 0 00-.063.02.306.306 0 00-.144.078l-.106.11c.035-.2.149-.349.301-.364.195-.016.367.203.39.484.024.285-.113.528-.308.543h-.039c.066-.078.133-.156.176-.222a.62.62 0 00.086-.332zm-.504.003l.11-.117a.12.12 0 01.077-.035h.008a.17.17 0 01.078.023.29.29 0 01.075.141.407.407 0 01-.063.235 2.48 2.48 0 01-.504.527l-.246.176c-.3.222-.824.543-1.16.71l-.098.047a9.581 9.581 0 01-1.262.512l-.156.047c-.316.098-.887.29-1.191.39l-.067-.488 1.375-.441a9.068 9.068 0 001.286-.547l.62-.328a5.284 5.284 0 001.118-.852zm-2.223 2.172l-.101-.015c-.012 0-.024-.004-.036-.004.258-.102.524-.215.715-.313l.094-.047.07-.035.684.07c.02.16.035.282.05.372.009.066.016.129.016.164a61.157 61.157 0 01-1.492-.192zm1.348.332v.028c-.055.03-.106.058-.153.086l-.617.328a7.582 7.582 0 01-.914.402 9.954 9.954 0 01-.957-.246l-.664-.223-.062-.023c0-.024-.004-.043-.008-.067.308-.105.855-.289 1.156-.382l.16-.051c.086-.024.184-.059.29-.098.109.02.206.04.296.051l.106.016c.297.039.949.129 1.367.18zm-.371-.875c.133-.078.265-.16.398-.242a6.757 6.757 0 00-.008.281zm-2.809.262l-.316.105c-.016-.082-.028-.16-.043-.238.12.047.242.098.36.133zm.121 1.89l-.176.055-.011-.125c.062.024.125.051.187.07zm1.07-.167c.372-.114.95-.352 1.29-.54l.617-.328a5.026 5.026 0 001.113-.847l.113-.117c.012-.02.055-.035.078-.035h.008c.024-.004.059.011.078.023a.28.28 0 01.075.14.44.44 0 01-.063.235 2.58 2.58 0 01-.504.527l-.246.176a9.554 9.554 0 01-1.164.711l-.09.047a9.804 9.804 0 01-1.261.512l-.16.046c-.301.094-.774.247-1.11.36l-.04-.516zm3.524-1.715a.447.447 0 00-.105-.227l-.008-.008c-.004-.003-.008-.007-.008-.011h-.004a.216.216 0 00-.164-.07.118.118 0 00-.063.019.304.304 0 00-.148.078l-.102.11c.036-.2.149-.348.301-.36.192-.016.367.203.39.484.02.286-.112.528-.308.543h-.043a2.5 2.5 0 00.18-.222.64.64 0 00.082-.336zm.152 1.82a.433.433 0 00-.105-.226l-.008-.008c-.004-.004-.008-.008-.008-.012 0 0-.004 0-.004-.004a.219.219 0 00-.168-.07.11.11 0 00-.058.02.262.262 0 00-.149.078l-.101.109c.035-.2.148-.348.3-.36.192-.015.368.2.387.485.024.285-.113.523-.304.539h-.043c.07-.074.132-.152.18-.223a.63.63 0 00.081-.328zm-.5.004l.11-.117a.135.135 0 01.082-.04h.008c.02 0 .058.013.078.028a.254.254 0 01.07.14.455.455 0 01-.059.235 2.55 2.55 0 01-.504.524l-.246.18c-.304.222-.828.538-1.16.71l-.094.047c-.335.168-.902.395-1.261.508l-.16.05c-.301.094-.778.247-1.11.36l-.047-.52 1.266-.386a8.5 8.5 0 001.293-.535l.617-.328a5.78 5.78 0 001.117-.856zm-1.172 2.328c-.335-.05-.714-.113-1.05-.156l-.102-.016c-.012 0-.023-.004-.035-.004.262-.101.523-.214.71-.316l.075-.031.39.07c.024.246.044.387.052.465zm.012.504l-.433.23c-.25.133-.618.297-.95.422-.343-.07-.738-.171-1.004-.257l-.605-.203c-.004-.094-.012-.18-.016-.274.332-.11.786-.258 1.082-.348l.16-.05c.087-.028.18-.059.286-.098.11.02.21.039.3.05l.102.012c.332.047.707.11 1.047.16l.02.005c0 .117.003.234.011.351zm-.195-1.144c.05-.028.098-.059.152-.09 0 .039 0 .078.004.117zm-2.887.136c.05.016.098.035.145.051l-.137.043c0-.031-.004-.062-.008-.094zm3.082-1.793c.043.422.004.492-.008.5h-.023a8.078 8.078 0 01-.656-.097c-.176-.028-.356-.059-.528-.082l-.101-.016c-.012 0-.024-.004-.035-.004.261-.101.523-.215.714-.312l.098-.047.027-.016zm-.289-.199c.078-.043.156-.09.242-.137 0 .055-.004.118-.004.172zm-1.05.656l.1.016c.169.023.349.05.524.082.22.04.45.074.66.098v.043l-.59.312a8.173 8.173 0 01-.913.402c-.332-.07-.707-.164-.961-.246l-.645-.214c0-.016-.004-.032-.004-.047.328-.11.781-.258 1.078-.348l.16-.05c.086-.024.18-.06.29-.098.113.023.214.039.3.05zm-1.47 3.457l-.144.043c0-.03-.004-.062-.004-.097.055.02.098.039.149.054zm1.102-.175a9.71 9.71 0 001.348-.563l.648-.344c.36-.195.883-.59 1.168-.886l.117-.121c.016-.02.059-.036.082-.04h.008a.144.144 0 01.082.024.29.29 0 01.078.148.398.398 0 01-.066.243c-.117.175-.36.425-.523.55l-.258.184c-.32.23-.864.566-1.219.742l-.098.047a10.1 10.1 0 01-1.316.535l-.168.05c-.316.102-.809.259-1.152.372l-.008-.54zm3.688-1.801a.454.454 0 00-.13-.254h-.003a.225.225 0 00-.176-.074.108.108 0 00-.062.02.353.353 0 00-.157.081l-.105.114c.031-.208.152-.364.308-.38.204-.011.387.215.41.508.028.297-.117.551-.32.567h-.043c.07-.078.137-.16.184-.23a.635.635 0 00.094-.352zm-1.86 1.941c.028.258.047.406.059.485-.383-.063-.727-.11-1.05-.153l-.106-.015c-.012 0-.024-.004-.04-.004a9.05 9.05 0 00.75-.328l.079-.043zm-.078-.176c.008-.003.012-.007.016-.007v.007zm-1.043.653l.11.015c.316.043.66.09 1.035.153.015.12.031.238.05.351l-.445.235c-.254.133-.629.297-.96.425a9.7 9.7 0 01-1.024-.261l-.703-.235c-.004 0-.004 0-.008-.004v-.199c.348-.117.844-.277 1.16-.375l.164-.05c.094-.028.195-.067.3-.106.122.02.227.04.321.05zm-1.656 1.648l-.332.102c.008-.07.012-.149.016-.223.105.047.214.082.316.121zm-.39.293l1.507-.472a8.788 8.788 0 001.371-.579l.656-.347a5.633 5.633 0 001.184-.899l.117-.125a.2.2 0 01.086-.043h.008a.14.14 0 01.086.028c.031.03.07.101.074.148a.454.454 0 01-.062.246c-.118.176-.364.43-.536.555l-.257.191c-.32.235-.875.575-1.235.75l-.097.051c-.36.18-.961.422-1.344.54l-.106.034c-.293.09-.714.227-1.07.344a7.782 7.782 0 01-.453-.023zm5.25-2.297a.464.464 0 00-.13-.258h-.004c-.05-.05-.113-.082-.18-.074a.167.167 0 00-.062.02.302.302 0 00-.156.082l-.11.113c.036-.21.16-.371.317-.383.207-.015.39.211.418.516.027.297-.121.559-.324.574h-.047c.07-.082.14-.168.191-.238a.653.653 0 00.086-.352zm-2.891 2.309l-.11-.016c-.011 0-.023-.004-.039-.004.278-.109.559-.23.758-.332l.078-.043.465.078.148.41-.226.06c-.363-.052-.781-.118-1.074-.153zm.617.25a9.843 9.843 0 01-.996.129c-.371.031-.742.047-1.098.047.223-.07.442-.145.617-.196l.106-.035c.09-.031.191-.066.3-.101.118.023.227.035.32.05l.11.016c.18.023.41.059.64.09zm.308-.77c.04-.02.079-.043.118-.066a.72.72 0 01.015.09zm2.114.164c-.02-.214-.149-.37-.297-.359a.177.177 0 00-.09.031h-.004l-.004.004a.272.272 0 00-.09.11 1.83 1.83 0 01-.152.148c.016-.246.148-.441.324-.457.207-.02.39.21.418.516.028.297-.12.558-.328.574-.016 0-.035 0-.055-.004.047-.063.094-.125.13-.195.1-.059.16-.203.148-.368zm-.176-.222a1.194 1.194 0 00-.074-.047c.023.008.05.023.074.047zm-3.504 1.765c.691-.058 1.516-.175 2.172-.347.418.812.945 1.136 1.496 1.43-.402.046-1.086.113-1.906.183-1.52.129-3.59.258-5.149.188.364-.262.946-.739 1.348-1.434.54.05 1.246.047 2.04-.02zm1.79 1.516a108.16 108.16 0 001.651-.156c.27-.031.442-.047.555-.063-.047.157-.094.32-.148.485-.645 2.027-1.7 3.332-2.973 3.672-.937.25-1.957-.051-2.797-.82-.734-.677-1.277-1.731-1.687-2.942 1.59.094 3.797-.043 5.398-.176zm-6.74-23.238c.79-.996 2.005-1.633 3.337-1.742 1.707-.145 3.156.632 3.777 2.023.875 1.977.973 3.11 1.125 4.828.031.414.14 1.195.266 2.067.078.636.18 1.351.324 2.175.07.43.129.82.18 1.133.023.274.05.543.074.8.547 5.696.797 8.302-.059 11.454-.05-.027-.097-.05-.144-.074-.551-.293-1.086-.574-1.508-1.356.316-.097.574-.207.738-.336a.861.861 0 00.18-.156c.043.012.086.02.125.016.25-.024.434-.32.402-.664-.031-.348-.258-.614-.508-.59-.234.016-.41.285-.406.605-.21.157-.496.29-.844.399a6.769 6.769 0 01-.203-.758 9.25 9.25 0 00.696-.461l.257-.187c.098-.07.211-.18.32-.29.036.012.079.016.122.012.25-.02.43-.32.398-.664-.027-.348-.254-.613-.504-.59-.226.02-.394.262-.406.559a5.476 5.476 0 01-1.039.773 16.913 16.913 0 01-.129-1.191c.278-.164.567-.348.766-.496l.258-.188c.093-.066.207-.172.312-.28.04.01.082.015.117.01.246-.019.426-.316.395-.655-.028-.34-.254-.602-.5-.583-.219.02-.387.258-.399.555-.27.262-.691.578-1.004.75a34.367 34.367 0 01-.042-1.246 9.78 9.78 0 00.585-.387l.243-.18c.093-.066.203-.163.3-.269a.28.28 0 00.114.012c.234-.02.406-.305.379-.629-.028-.324-.243-.574-.477-.555-.215.016-.371.246-.379.528a5.83 5.83 0 01-.773.605c0-.332.004-.676.011-1.039a5.37 5.37 0 00.43-.293l.246-.176c.094-.07.203-.168.301-.273.039.012.074.015.113.012.235-.02.406-.301.38-.63-.028-.324-.243-.574-.477-.554-.211.02-.368.246-.38.527a4.876 4.876 0 01-.554.457c-.004-.039-.012-.09-.02-.152a.417.417 0 00-.011-.098c.008-.273.011-.558.023-.859.082-.055.156-.105.223-.152l.246-.176c.09-.07.2-.168.297-.274.039.012.078.016.113.012.238-.02.406-.305.379-.629-.023-.324-.242-.574-.477-.554-.21.02-.37.246-.378.527a3.922 3.922 0 01-.372.32l.012-.383.012-.332c.02-.562.3-1.144.594-1.754.347-.718.71-1.46.644-2.23-.117-1.398-.683-3.707-1.195-4.852a5.002 5.002 0 00-1.723-2.074c-.3-.21-.91-.308-1.59-.25-.504.04-1.46.203-2.257.817-.727.558-1.145 2.132-1.293 3.418-.266 2.347.199 3.87.68 4.46.878 1.122 1.523 2.25 1.613 2.645.074.332.144.66.207.992a6.104 6.104 0 01-.555-.316c-.063-.266-.254-.457-.457-.442-.238.02-.406.305-.38.63.024.324.243.574.477.554a.332.332 0 00.122-.035c.101.07.203.137.289.18l.273.136c.113.055.25.117.399.18.066.371.125.738.183 1.102a5.354 5.354 0 01-.742-.407c-.063-.265-.254-.457-.461-.441-.234.02-.406.305-.379.629.027.324.242.574.477.554a.293.293 0 00.12-.035c.106.07.208.137.294.18l.27.137c.148.074.34.16.542.242.043.336.082.668.121 1a5.338 5.338 0 01-.836-.45c-.058-.261-.254-.452-.457-.437-.234.02-.406.3-.379.63.028.323.243.573.477.554a.261.261 0 00.121-.04c.102.075.207.141.293.184l.274.137c.156.078.375.172.59.258.038.422.07.828.09 1.21a6.088 6.088 0 01-.962-.503c-.062-.281-.265-.477-.48-.461-.246.02-.426.316-.399.656.032.34.254.602.5.582a.379.379 0 00.13-.039c.105.078.21.145.304.192l.281.14c.18.094.422.2.664.297.016.422.024.816.02 1.18a5.588 5.588 0 01-.895-.48c-.062-.286-.27-.485-.488-.466-.25.024-.434.32-.402.664.03.348.257.614.507.59a.35.35 0 00.13-.035c.105.074.214.149.312.192l.285.144c.145.07.332.156.523.234a7.24 7.24 0 01-.097.899 4.454 4.454 0 01-.79-.117l-.034-.012c0-.02 0-.043-.004-.066-.028-.348-.254-.614-.504-.59-.25.023-.434.32-.403.664.028.347.258.613.508.59h.012c.117.086.27.168.484.234.11.04.246.07.403.094-.453.73-1.118 1.199-1.403 1.394-.765-2.449-1.007-5.43-1.148-7.187v-.004c.055-.418.11-.77.156-1.074.297-1.926.285-2.004-.32-5.934-.192-1.262-.457-2.98-.797-5.285-.203-1.39.101-2.645.879-3.617zm0 0"/></g></svg>